<svg xmlns="http://www.w3.org/2000/svg" width="256" height="256" viewBox="0 0 256 256" fill="none">
  <defs>
    <linearGradient id="g" x1="0" y1="0" x2="1" y2="1">
      <stop offset="0%" stop-color="#9ED3FF"/>
      <stop offset="100%" stop-color="#6C8CFF"/>
    </linearGradient>
  </defs>
  <rect width="256" height="256" rx="48" fill="#0f172a"/>
  <g transform="translate(28 22)">
    <path d="M100 0c44 0 80 36 80 80 0 26-12 49-31 64l-5 4v12a8 8 0 0 1-8 8h-8v12c0 7-5 16-12 22l-16 16-16-16c-7-6-12-15-12-22v-12h-8a8 8 0 0 1-8-8v-12l-5-4A80 80 0 0 1 20 80C20 36 56 0 100 0z" fill="url(#g)"/>
    <rect x="88" y="168" width="24" height="40" rx="6" fill="#1f2937" stroke="#93c5fd"/>
    <circle cx="100" cy="188" r="4" fill="#93c5fd"/>
  </g>
  <text x="128" y="238" text-anchor="middle" font-family="ui-sans-serif, system-ui, Segoe UI, Roboto" font-size="44" fill="#e5e7eb">LLM</text>
</svg>
