<svg id="svg" version="1.1" xmlns="http://www.w3.org/2000/svg" xmlns:xlink="http://www.w3.org/1999/xlink" width="400" height="528.90625" viewBox="0, 0, 400,528.90625"><g id="svgg"><path id="path0" d="M230.000 29.241 C 218.733 31.019,210.401 36.940,207.938 44.917 C 206.325 50.141,206.383 44.852,206.415 185.800 C 206.446 320.670,206.465 322.494,207.866 323.653 C 208.790 324.418,242.261 324.420,247.000 323.656 C 266.845 320.457,282.160 310.165,288.667 295.657 C 289.600 293.575,289.665 293.521,290.914 293.794 C 309.612 297.871,335.241 284.601,344.979 265.800 C 347.624 260.692,350.000 251.632,350.000 246.649 C 350.000 244.461,350.474 243.600,351.680 243.600 C 352.076 243.600,352.400 243.464,352.400 243.298 C 352.400 243.131,352.920 242.765,353.555 242.484 C 354.926 241.877,359.936 237.638,362.214 235.157 C 377.167 218.872,380.487 194.596,370.495 174.600 C 368.892 171.392,366.683 167.751,366.007 167.200 C 364.583 166.040,363.916 164.258,364.348 162.765 C 364.858 160.998,365.323 159.119,365.971 156.200 C 366.569 153.508,366.596 141.881,366.011 138.951 C 364.784 132.802,363.704 129.558,360.990 123.864 C 356.623 114.703,347.364 105.795,337.200 100.975 C 335.990 100.401,334.730 99.793,334.400 99.625 C 334.070 99.457,333.754 98.797,333.698 98.160 C 333.122 91.612,330.116 82.813,326.717 77.728 C 326.103 76.808,325.600 75.955,325.600 75.832 C 325.600 74.152,315.142 63.516,310.381 60.354 C 305.883 57.367,303.521 56.174,297.100 53.646 C 296.605 53.451,295.480 53.106,294.600 52.879 C 291.025 51.957,289.753 51.632,288.800 51.399 C 287.673 51.123,283.949 50.517,281.107 50.146 C 279.460 49.932,279.024 49.659,277.749 48.050 C 267.323 34.891,246.406 26.651,230.000 29.241 M160.200 29.459 C 147.647 30.843,134.145 37.960,126.547 47.196 L 124.324 49.898 121.662 50.140 C 104.240 51.726,93.318 56.540,82.600 67.356 C 75.166 74.859,71.327 81.095,69.278 89.000 C 69.050 89.880,68.669 91.341,68.432 92.246 C 68.194 93.152,68.000 95.057,68.000 96.479 C 68.000 98.773,67.898 99.111,67.100 99.473 C 52.635 106.031,44.811 113.807,39.002 127.400 C 37.755 130.319,37.648 130.644,36.369 135.400 C 34.655 141.777,34.693 154.239,36.441 158.719 C 36.639 159.224,36.800 160.069,36.800 160.595 C 36.800 161.122,36.959 161.651,37.152 161.770 C 38.340 162.504,37.843 164.147,35.314 167.852 C 21.859 187.557,22.841 213.646,37.738 232.200 C 41.256 236.582,49.532 243.600,51.182 243.600 C 51.412 243.600,51.612 243.825,51.628 244.100 C 51.643 244.375,51.721 245.050,51.802 245.600 C 51.882 246.150,52.155 248.130,52.407 250.000 C 52.660 251.870,52.960 254.076,53.075 254.903 C 53.190 255.729,53.445 256.505,53.642 256.626 C 53.839 256.748,54.000 257.199,54.000 257.629 C 54.000 258.059,54.166 258.723,54.368 259.105 C 54.570 259.487,55.146 260.880,55.646 262.200 C 60.346 274.593,72.218 285.926,85.000 290.223 C 91.452 292.391,94.450 292.842,103.571 293.012 L 112.143 293.172 113.775 296.286 C 116.889 302.224,121.188 307.486,126.723 312.136 C 131.743 316.353,141.047 320.730,148.800 322.523 C 155.512 324.075,157.105 324.170,176.600 324.185 L 195.800 324.200 195.926 189.800 C 196.058 48.791,196.074 50.242,194.323 45.086 C 190.346 33.369,177.612 27.538,160.200 29.459 M170.600 40.973 C 180.931 42.821,183.151 45.508,184.004 57.200 C 184.406 62.715,184.582 164.084,184.190 164.476 C 183.859 164.807,161.056 141.697,160.518 140.486 C 160.162 139.683,160.031 133.598,160.018 117.120 L 160.000 94.841 161.420 93.758 C 167.844 88.858,165.710 77.850,157.977 75.994 C 146.258 73.183,139.990 87.108,149.800 94.160 C 150.661 94.779,151.340 132.020,150.505 132.855 C 150.201 133.159,135.636 118.841,130.715 113.400 L 128.906 111.400 129.719 109.600 C 134.683 98.612,121.731 88.837,112.707 96.760 C 105.251 103.306,110.549 115.600,120.826 115.600 C 122.159 115.600,125.506 118.890,178.101 171.907 L 184.402 178.259 184.301 245.429 L 184.200 312.600 177.200 312.600 L 170.200 312.600 170.082 287.032 C 170.017 272.969,169.837 261.240,169.682 260.967 C 169.527 260.694,166.428 257.440,162.795 253.736 C 159.162 250.031,154.219 244.960,151.811 242.467 L 147.431 237.934 147.366 213.116 C 147.307 190.663,147.363 188.245,147.950 187.735 C 148.308 187.425,149.189 186.708,149.908 186.143 C 157.369 180.281,152.601 168.000,142.865 168.000 C 132.767 168.000,128.553 180.685,136.688 186.592 L 138.351 187.800 138.376 192.700 C 138.389 195.395,138.252 197.600,138.071 197.600 C 136.823 197.600,96.366 155.808,96.673 154.836 C 100.455 142.865,83.189 134.902,76.469 145.518 C 70.598 154.793,78.339 164.838,89.640 162.610 L 91.080 162.327 108.240 179.625 C 117.678 189.140,128.148 199.653,131.506 202.987 C 135.862 207.312,137.726 209.444,138.006 210.422 C 138.452 211.977,138.552 228.915,138.118 229.349 C 137.962 229.504,130.614 222.412,121.789 213.589 L 105.743 197.547 100.772 197.186 C 98.037 196.987,93.947 196.819,91.681 196.812 L 87.563 196.800 86.881 195.534 C 81.094 184.780,65.470 188.338,65.512 200.400 C 65.548 210.829,77.344 215.669,85.000 208.396 L 86.600 206.876 95.000 206.617 L 103.400 206.357 109.000 211.880 C 116.996 219.766,148.780 250.973,155.300 257.339 L 160.800 262.709 160.800 268.175 C 160.800 274.453,161.039 274.295,157.122 270.600 C 152.204 265.962,144.193 258.572,143.554 258.084 C 142.626 257.377,136.046 256.837,127.762 256.789 C 119.024 256.739,119.028 256.739,118.463 254.852 C 115.114 243.674,98.111 247.496,98.227 259.400 C 98.320 268.834,108.072 273.535,115.891 267.915 L 117.400 266.830 129.200 266.589 L 141.000 266.348 147.200 272.266 C 150.610 275.521,154.974 279.718,156.897 281.592 L 160.395 285.000 160.497 298.400 L 160.600 311.800 159.000 311.931 C 144.420 313.122,125.786 300.075,122.007 286.028 C 121.735 285.017,121.011 283.771,120.323 283.128 L 119.115 282.000 109.104 282.000 C 91.772 282.000,85.450 280.234,76.703 272.947 C 68.354 265.993,63.661 255.974,63.014 243.725 C 62.705 237.866,62.264 237.044,58.259 234.859 C 33.459 221.331,29.148 182.775,50.900 169.029 C 53.634 167.301,53.673 167.039,51.601 164.308 C 44.892 155.464,44.483 142.356,50.516 129.600 C 55.527 119.007,65.892 110.797,76.502 109.015 C 79.224 108.558,79.600 107.734,79.600 102.225 C 79.601 85.213,89.818 71.790,108.400 64.386 C 116.097 61.319,120.400 60.860,120.400 63.106 C 120.400 64.700,121.599 68.409,122.477 69.531 C 125.184 72.993,128.293 71.455,130.023 65.800 C 134.181 52.208,146.531 42.662,162.350 40.815 C 166.397 40.342,167.150 40.356,170.600 40.973 M243.800 41.444 C 252.532 42.858,261.019 47.415,266.491 53.627 C 270.953 58.693,271.093 59.377,270.780 74.600 C 270.464 90.001,271.077 88.994,253.527 102.935 C 244.520 110.090,242.994 114.213,248.719 115.929 C 253.462 117.350,256.664 115.437,271.517 102.310 C 278.907 95.780,282.672 87.062,281.967 78.113 C 281.919 77.501,281.907 73.535,281.940 69.300 L 282.000 61.600 282.940 61.600 C 283.457 61.600,284.402 61.759,285.040 61.953 C 285.678 62.148,287.010 62.528,288.000 62.798 C 304.056 67.177,313.736 75.454,320.047 90.200 C 321.214 92.924,321.746 96.191,321.840 101.200 C 321.895 104.170,321.954 106.821,321.970 107.091 C 322.017 107.864,323.754 108.814,326.280 109.447 C 328.887 110.101,329.036 110.159,333.200 112.147 C 344.354 117.471,351.295 126.730,354.380 140.400 C 355.672 146.122,354.518 157.408,352.325 160.500 L 351.546 161.600 332.956 161.600 C 312.249 161.600,310.484 161.436,305.400 159.035 C 297.119 155.125,292.228 145.134,295.200 138.200 C 298.706 130.020,291.906 122.063,284.481 125.658 C 280.454 127.607,278.984 134.325,281.527 139.163 C 282.045 140.150,282.604 142.175,282.796 143.763 C 284.278 156.017,292.255 166.404,303.517 170.743 C 308.719 172.747,310.088 172.849,330.722 172.770 C 348.980 172.701,354.058 172.701,355.052 172.769 C 355.301 172.786,356.438 174.010,357.580 175.488 C 371.978 194.139,364.681 224.753,343.307 235.372 C 339.115 237.454,339.328 237.076,339.013 243.000 C 338.462 253.366,337.241 257.641,332.952 264.222 C 324.615 277.016,308.217 284.118,291.200 282.306 C 282.703 281.401,281.319 281.929,279.847 286.638 C 274.020 305.283,255.647 313.940,224.856 312.550 L 218.800 312.277 218.800 295.138 L 218.800 278.000 221.500 277.954 C 227.871 277.844,234.761 277.302,237.000 276.735 C 257.489 271.547,267.311 257.991,266.289 236.310 C 265.861 227.238,262.139 223.319,256.529 226.034 C 252.898 227.792,252.526 229.608,253.646 240.097 C 255.018 252.936,247.669 263.194,235.200 265.847 C 231.227 266.692,219.476 266.615,218.749 265.739 C 217.991 264.825,217.658 65.372,218.399 56.600 C 219.573 42.719,226.426 38.630,243.800 41.444 M244.835 145.119 C 242.553 146.258,241.798 147.659,241.813 150.728 C 241.872 162.498,243.078 175.351,244.629 180.739 C 247.951 192.275,258.338 202.496,270.218 205.919 C 274.756 207.226,274.966 207.248,286.000 207.572 C 301.698 208.034,307.335 210.973,308.189 219.143 C 309.253 229.312,310.342 231.195,315.162 231.199 C 325.477 231.206,322.042 211.807,310.146 202.869 C 303.179 197.635,296.988 196.019,283.858 196.007 C 272.543 195.997,267.961 194.453,262.335 188.759 C 255.442 181.782,253.781 175.791,254.158 159.268 C 254.381 149.491,254.337 148.217,253.740 147.206 C 252.226 144.643,247.847 143.617,244.835 145.119 M145.731 341.400 C 145.733 342.940,145.805 343.521,145.892 342.691 C 145.979 341.861,145.977 340.601,145.889 339.891 C 145.800 339.181,145.729 339.860,145.731 341.400 M255.728 341.200 C 255.728 342.630,255.801 343.215,255.889 342.500 C 255.978 341.785,255.978 340.615,255.889 339.900 C 255.801 339.185,255.728 339.770,255.728 341.200 M147.688 347.413 C 148.286 348.043,148.847 348.477,148.935 348.379 C 149.023 348.280,148.533 347.765,147.847 347.234 L 146.600 346.269 147.688 347.413 M253.478 347.413 C 252.860 347.956,252.514 348.400,252.708 348.400 C 252.902 348.400,253.483 347.950,254.000 347.400 C 255.195 346.128,254.931 346.134,253.478 347.413 M158.880 359.680 C 158.616 359.944,158.405 360.349,158.412 360.580 C 158.419 360.811,158.608 360.685,158.832 360.300 C 159.216 359.640,161.661 359.600,201.230 359.600 L 243.220 359.600 243.600 360.600 C 243.809 361.150,244.069 361.600,244.178 361.600 C 244.438 361.600,243.979 360.334,243.489 359.700 C 242.936 358.985,159.594 358.966,158.880 359.680 M157.660 363.267 C 157.627 363.854,157.496 364.664,157.370 365.067 C 157.152 365.760,157.165 365.761,157.595 365.090 C 157.846 364.699,157.977 363.889,157.886 363.290 L 157.720 362.200 157.660 363.267 M244.468 363.400 C 244.462 363.840,244.611 364.560,244.800 365.000 C 245.238 366.019,245.238 364.968,244.800 363.600 C 244.543 362.796,244.477 362.757,244.468 363.400 M156.854 367.067 C 156.825 367.544,156.696 368.264,156.570 368.667 C 156.352 369.361,156.364 369.362,156.796 368.688 C 157.047 368.297,157.175 367.577,157.081 367.088 C 156.909 366.201,156.909 366.201,156.854 367.067 M245.206 367.433 C 245.209 367.855,245.395 368.470,245.618 368.800 C 245.915 369.238,245.952 369.076,245.756 368.200 C 245.427 366.729,245.198 366.410,245.206 367.433 M145.990 401.000 C 145.776 401.550,145.409 402.495,145.175 403.100 C 144.941 403.705,144.914 404.020,145.115 403.800 C 145.586 403.283,146.858 400.000,146.587 400.000 C 146.473 400.000,146.205 400.450,145.990 401.000 M199.700 403.887 C 200.305 403.978,201.295 403.978,201.900 403.887 C 202.505 403.795,202.010 403.720,200.800 403.720 C 199.590 403.720,199.095 403.795,199.700 403.887 M192.468 407.100 C 189.881 409.695,188.800 412.127,188.800 415.347 C 188.800 417.580,189.633 420.800,190.211 420.800 C 190.321 420.800,190.138 420.148,189.805 419.351 C 188.022 415.083,189.955 408.890,193.910 406.203 C 194.722 405.651,195.155 405.200,194.874 405.200 C 194.592 405.200,193.510 406.055,192.468 407.100 M207.884 406.362 C 208.766 407.001,209.887 408.171,210.376 408.962 C 211.464 410.722,211.927 410.886,210.923 409.155 C 210.157 407.836,207.321 405.200,206.668 405.200 C 206.455 405.200,207.002 405.723,207.884 406.362 M141.436 411.279 C 140.866 412.422,140.401 413.547,140.402 413.779 C 140.403 414.182,141.983 411.264,142.518 409.869 C 143.055 408.470,142.429 409.285,141.436 411.279 M212.520 415.600 C 212.520 416.810,212.595 417.305,212.687 416.700 C 212.778 416.095,212.778 415.105,212.687 414.500 C 212.595 413.895,212.520 414.390,212.520 415.600 M137.043 419.433 C 136.715 420.287,136.747 421.697,137.106 422.261 C 137.268 422.514,137.413 421.839,137.429 420.761 C 137.461 418.636,137.412 418.469,137.043 419.433 M264.800 420.824 C 264.800 421.497,264.956 421.951,265.146 421.833 C 265.469 421.634,265.293 419.600,264.953 419.600 C 264.869 419.600,264.800 420.151,264.800 420.824 M210.408 421.788 C 209.936 422.551,208.448 423.946,207.101 424.888 C 203.881 427.140,204.131 422.749,204.411 472.200 L 204.659 515.800 204.698 471.400 L 204.736 427.000 205.833 426.200 C 209.069 423.841,210.146 422.879,210.875 421.700 C 211.317 420.985,211.586 420.400,211.472 420.400 C 211.358 420.400,210.879 421.025,210.408 421.788 M190.400 421.452 C 190.400 421.664,191.165 422.549,192.100 423.419 L 193.800 425.000 192.200 423.206 C 191.320 422.220,190.555 421.335,190.500 421.239 C 190.445 421.144,190.400 421.240,190.400 421.452 M258.822 429.330 L 253.845 434.600 258.151 430.400 C 261.751 426.888,264.454 423.907,263.927 424.030 C 263.857 424.046,261.560 426.431,258.822 429.330 M138.400 424.525 C 138.400 424.594,138.985 425.179,139.700 425.825 L 141.000 427.000 139.825 425.700 C 138.730 424.488,138.400 424.216,138.400 424.525 M197.144 471.081 C 197.302 508.636,197.246 515.268,196.765 515.881 C 196.250 516.537,196.262 516.552,196.900 516.051 C 197.649 515.464,197.868 462.105,197.223 437.200 C 197.078 431.590,197.042 446.836,197.144 471.081 M149.763 436.500 C 151.047 437.985,152.182 439.200,152.286 439.200 C 152.570 439.200,149.424 435.516,148.358 434.600 C 147.846 434.160,148.478 435.015,149.763 436.500 M250.975 437.700 L 249.800 439.000 251.100 437.825 C 251.815 437.179,252.400 436.594,252.400 436.525 C 252.400 436.216,252.070 436.488,250.975 437.700 M155.196 442.794 C 155.890 443.671,156.667 444.518,156.923 444.676 C 157.178 444.834,156.693 444.116,155.845 443.081 C 154.997 442.047,154.220 441.200,154.118 441.200 C 154.016 441.200,154.501 441.918,155.196 442.794 M246.598 442.559 C 246.379 442.866,245.783 443.676,245.273 444.359 C 243.871 446.235,244.502 445.846,246.179 443.800 C 246.990 442.810,247.506 442.000,247.325 442.000 C 247.144 442.000,246.817 442.251,246.598 442.559 M243.386 446.578 C 243.174 446.875,242.583 447.676,242.073 448.359 C 241.563 449.041,241.218 449.600,241.306 449.600 C 241.589 449.600,244.086 446.353,243.926 446.193 C 243.841 446.108,243.598 446.281,243.386 446.578 M161.591 450.788 C 162.057 451.441,162.642 452.102,162.891 452.256 C 163.141 452.411,162.841 451.876,162.225 451.068 C 160.888 449.315,160.384 449.092,161.591 450.788 M239.504 451.644 C 238.901 452.500,238.487 453.200,238.583 453.200 C 238.869 453.200,240.926 450.392,240.756 450.233 C 240.670 450.154,240.107 450.788,239.504 451.644 M236.975 455.068 C 236.359 455.876,236.059 456.411,236.309 456.256 C 236.821 455.940,238.553 453.600,238.275 453.600 C 238.176 453.600,237.591 454.261,236.975 455.068 M165.540 456.316 C 166.033 457.009,166.644 457.704,166.897 457.860 C 167.150 458.017,166.954 457.577,166.460 456.884 C 165.967 456.191,165.356 455.496,165.103 455.340 C 164.850 455.183,165.046 455.623,165.540 456.316 M232.253 461.991 C 231.044 463.819,230.842 464.569,231.940 463.154 C 232.783 462.068,233.708 460.400,233.467 460.400 C 233.379 460.400,232.832 461.116,232.253 461.991 M169.631 462.300 C 170.648 464.000,171.200 464.694,171.200 464.271 C 171.200 463.906,169.155 460.800,168.914 460.800 C 168.816 460.800,169.138 461.475,169.631 462.300 M228.614 467.835 C 228.241 468.404,228.005 468.938,228.089 469.022 C 228.173 469.107,228.558 468.641,228.944 467.988 C 229.806 466.528,229.548 466.409,228.614 467.835 M173.960 469.400 C 174.634 470.705,175.188 471.428,175.185 471.000 C 175.183 470.780,174.814 470.150,174.364 469.600 C 173.821 468.936,173.685 468.869,173.960 469.400 M227.014 470.635 C 226.641 471.204,226.405 471.738,226.489 471.822 C 226.573 471.907,226.958 471.441,227.344 470.788 C 228.206 469.328,227.948 469.209,227.014 470.635 M225.414 473.435 C 225.041 474.004,224.805 474.538,224.889 474.622 C 224.973 474.707,225.358 474.241,225.744 473.588 C 226.606 472.128,226.348 472.009,225.414 473.435 M176.800 474.400 C 177.249 475.280,177.706 476.000,177.816 476.000 C 177.926 476.000,177.649 475.280,177.200 474.400 C 176.751 473.520,176.294 472.800,176.184 472.800 C 176.074 472.800,176.351 473.520,176.800 474.400 M223.600 476.800 C 223.151 477.680,222.874 478.400,222.984 478.400 C 223.094 478.400,223.551 477.680,224.000 476.800 C 224.449 475.920,224.726 475.200,224.616 475.200 C 224.506 475.200,224.049 475.920,223.600 476.800 " stroke="none" fill="#3c7ea5" fill-rule="evenodd"></path><path id="path1" d="M234.691 28.689 C 235.401 28.777,236.661 28.779,237.491 28.692 C 238.321 28.605,237.740 28.533,236.200 28.531 C 234.660 28.529,233.981 28.600,234.691 28.689 M159.115 29.128 C 158.738 29.278,162.105 29.400,166.598 29.400 C 171.091 29.400,174.459 29.278,174.083 29.128 C 173.708 28.979,170.340 28.856,166.600 28.856 C 162.860 28.856,159.492 28.979,159.115 29.128 M227.600 29.224 C 227.176 29.514,227.704 29.557,229.400 29.368 C 230.720 29.220,231.875 29.032,231.967 28.950 C 232.368 28.589,228.139 28.854,227.600 29.224 M243.600 29.401 C 257.501 31.500,270.079 38.369,277.749 48.050 C 279.024 49.659,279.460 49.932,281.107 50.146 C 283.949 50.517,287.673 51.123,288.800 51.399 C 293.982 52.667,296.010 53.216,297.100 53.646 C 303.521 56.174,305.883 57.367,310.381 60.354 C 315.142 63.516,325.600 74.152,325.600 75.832 C 325.600 75.955,326.103 76.808,326.717 77.728 C 330.116 82.813,333.122 91.612,333.698 98.160 C 333.754 98.797,334.070 99.457,334.400 99.625 C 334.730 99.793,335.990 100.401,337.200 100.975 C 349.524 106.819,358.754 116.894,363.608 129.800 C 363.885 130.536,364.415 132.366,365.231 135.400 C 366.529 140.230,366.942 151.827,365.971 156.200 C 365.323 159.119,364.858 160.998,364.348 162.765 C 363.916 164.258,364.583 166.040,366.007 167.200 C 368.473 169.207,373.680 180.960,375.134 187.800 C 377.338 198.166,375.848 212.572,371.752 220.493 C 371.416 221.143,371.229 221.762,371.336 221.870 C 371.444 221.977,371.832 221.375,372.199 220.532 C 372.567 219.690,373.032 218.687,373.234 218.305 C 373.435 217.923,373.600 217.259,373.600 216.829 C 373.600 216.399,373.780 215.936,374.000 215.800 C 374.220 215.664,374.400 215.124,374.400 214.600 C 374.400 214.076,374.580 213.536,374.800 213.400 C 375.020 213.264,375.200 212.454,375.200 211.600 C 375.200 210.746,375.358 209.949,375.551 209.830 C 376.832 209.039,376.832 188.561,375.551 187.770 C 375.358 187.651,375.200 186.854,375.200 186.000 C 375.200 185.146,375.020 184.336,374.800 184.200 C 374.580 184.064,374.400 183.524,374.400 183.000 C 374.400 182.476,374.220 181.936,374.000 181.800 C 373.780 181.664,373.600 181.201,373.600 180.771 C 373.600 180.341,373.438 179.677,373.240 179.295 C 373.042 178.913,371.952 176.696,370.818 174.369 C 369.684 172.042,367.766 168.822,366.556 167.214 C 365.109 165.290,364.445 164.069,364.616 163.645 C 368.335 154.382,367.601 136.249,363.153 127.505 C 362.959 127.123,362.800 126.538,362.800 126.205 C 362.800 125.872,362.620 125.600,362.400 125.600 C 362.180 125.600,362.000 125.335,362.000 125.012 C 362.000 122.184,353.215 111.250,347.368 106.800 C 346.067 105.810,344.653 104.685,344.226 104.300 C 343.799 103.915,343.321 103.600,343.165 103.600 C 343.009 103.600,341.738 102.911,340.341 102.070 C 338.943 101.228,336.946 100.193,335.901 99.770 C 334.120 99.047,334.003 98.909,334.001 97.526 C 333.998 94.180,331.792 86.321,329.645 82.008 C 327.831 78.364,325.532 74.580,324.779 74.000 C 324.637 73.890,324.448 73.602,324.360 73.361 C 323.675 71.480,313.727 61.492,311.889 60.839 C 311.640 60.751,311.079 60.346,310.643 59.939 C 310.206 59.533,309.613 59.200,309.325 59.200 C 309.036 59.200,308.800 59.045,308.800 58.857 C 308.800 58.568,302.006 55.043,299.400 53.979 C 294.792 52.098,283.983 49.600,280.454 49.600 C 279.764 49.600,279.200 49.418,279.200 49.196 C 279.200 48.637,271.318 40.746,269.600 39.585 C 268.830 39.064,268.110 38.516,268.000 38.366 C 265.735 35.282,247.775 28.705,242.000 28.844 C 240.566 28.879,240.891 28.992,243.600 29.401 M154.600 30.000 C 153.506 30.470,155.333 30.470,156.800 30.000 C 157.775 29.688,157.770 29.679,156.600 29.668 C 155.940 29.662,155.040 29.811,154.600 30.000 M176.400 30.000 C 177.930 30.490,179.158 30.490,178.400 30.000 C 178.070 29.787,177.260 29.627,176.600 29.646 C 175.424 29.679,175.420 29.686,176.400 30.000 M224.400 30.000 C 223.613 30.509,225.016 30.509,226.200 30.000 C 226.933 29.685,226.916 29.654,226.000 29.634 C 225.450 29.622,224.730 29.787,224.400 30.000 M148.000 31.950 C 142.184 34.215,135.706 37.656,134.400 39.172 C 134.290 39.300,133.503 39.925,132.651 40.560 C 130.663 42.043,127.243 45.463,125.760 47.451 C 124.227 49.507,124.091 49.585,122.000 49.607 C 120.139 49.626,114.106 50.444,110.600 51.151 C 106.687 51.941,99.496 54.581,96.600 56.291 C 95.720 56.810,94.685 57.338,94.300 57.464 C 93.915 57.590,93.600 57.852,93.600 58.047 C 93.600 58.241,93.407 58.400,93.172 58.400 C 92.820 58.400,90.317 59.971,88.600 61.269 C 84.982 64.005,78.788 70.152,76.814 72.965 C 76.492 73.424,75.907 74.149,75.514 74.575 C 75.121 75.002,74.800 75.587,74.800 75.875 C 74.800 76.164,74.645 76.400,74.457 76.400 C 74.095 76.400,70.369 83.747,69.690 85.800 C 69.257 87.110,68.600 89.514,68.160 91.400 C 68.006 92.060,67.682 94.021,67.440 95.758 C 67.156 97.799,66.788 99.031,66.400 99.238 C 66.070 99.415,64.540 100.137,63.000 100.842 C 59.820 102.299,54.947 105.471,52.652 107.578 C 47.821 112.015,42.983 117.881,41.666 120.900 C 41.306 121.725,40.874 122.400,40.706 122.400 C 40.538 122.400,40.400 122.760,40.400 123.200 C 40.400 123.640,40.220 124.000,40.000 124.000 C 39.780 124.000,39.600 124.253,39.600 124.562 C 39.600 124.871,39.214 125.906,38.743 126.862 C 37.383 129.621,36.601 132.134,35.153 138.400 C 34.383 141.731,34.533 153.094,35.393 156.600 C 35.770 158.140,36.171 159.987,36.284 160.704 C 36.396 161.421,36.649 162.106,36.844 162.227 C 37.351 162.540,37.286 164.700,36.760 165.025 C 35.563 165.764,30.717 174.221,29.210 178.200 C 29.043 178.640,28.723 179.450,28.499 180.000 C 28.275 180.550,27.872 181.810,27.604 182.800 C 27.336 183.790,26.955 185.013,26.758 185.519 C 26.561 186.024,26.409 187.014,26.420 187.719 C 26.432 188.541,26.775 187.702,27.376 185.377 C 29.089 178.751,31.489 173.475,35.402 167.731 C 37.843 164.147,38.328 162.497,37.152 161.770 C 36.959 161.651,36.800 161.122,36.800 160.595 C 36.800 160.069,36.639 159.224,36.441 158.719 C 34.693 154.239,34.655 141.777,36.369 135.400 C 37.648 130.644,37.755 130.319,39.002 127.400 C 44.811 113.807,52.635 106.031,67.100 99.473 C 67.898 99.111,68.000 98.773,68.000 96.479 C 68.000 95.057,68.194 93.152,68.432 92.246 C 68.669 91.341,69.050 89.880,69.278 89.000 C 71.327 81.095,75.166 74.859,82.600 67.356 C 93.318 56.540,104.240 51.726,121.662 50.140 L 124.324 49.898 126.547 47.196 C 132.041 40.518,140.380 35.021,149.989 31.743 C 152.085 31.028,153.350 30.449,152.800 30.456 C 152.250 30.464,150.090 31.136,148.000 31.950 M181.457 31.574 C 188.191 34.691,192.237 38.941,194.323 45.086 C 196.074 50.242,196.058 48.791,195.926 189.800 L 195.800 324.200 176.600 324.185 C 162.641 324.175,156.581 324.028,154.400 323.647 C 135.006 320.265,121.622 311.251,113.775 296.286 L 112.143 293.172 103.571 293.012 C 97.838 292.905,94.139 292.651,92.400 292.244 C 85.977 290.743,83.148 289.771,78.700 287.537 C 77.875 287.123,77.203 286.922,77.207 287.092 C 77.215 287.450,80.789 289.200,81.512 289.200 C 81.780 289.200,82.000 289.341,82.000 289.513 C 82.000 289.685,82.855 290.071,83.900 290.371 C 84.945 290.671,85.980 291.048,86.200 291.208 C 86.420 291.368,87.140 291.601,87.800 291.725 C 88.460 291.849,89.810 292.155,90.800 292.405 C 94.541 293.348,109.220 294.195,111.175 293.581 C 111.557 293.461,112.161 294.208,112.975 295.811 C 115.769 301.309,120.694 307.775,124.291 310.667 C 125.341 311.510,126.443 312.431,126.742 312.714 C 128.431 314.312,136.184 318.767,139.600 320.103 C 140.150 320.317,140.913 320.652,141.295 320.847 C 141.677 321.041,142.341 321.200,142.771 321.200 C 143.201 321.200,143.664 321.380,143.800 321.600 C 143.936 321.820,144.476 322.000,145.000 322.000 C 145.524 322.000,146.064 322.180,146.200 322.400 C 146.336 322.620,147.031 322.800,147.744 322.800 C 148.457 322.800,149.211 322.963,149.420 323.163 C 150.743 324.428,194.917 325.643,196.112 324.448 C 196.787 323.773,196.473 52.749,195.794 49.179 C 194.973 44.865,194.746 44.014,194.352 43.770 C 194.159 43.651,194.000 43.203,194.000 42.776 C 194.000 42.349,193.833 42.000,193.629 42.000 C 193.425 42.000,193.200 41.734,193.129 41.408 C 192.412 38.127,182.763 30.313,179.558 30.418 C 179.251 30.428,180.105 30.948,181.457 31.574 M221.800 30.800 C 221.485 31.309,222.412 31.309,223.200 30.800 C 223.688 30.485,223.636 30.411,222.924 30.406 C 222.442 30.403,221.936 30.580,221.800 30.800 M218.200 32.500 C 215.626 33.872,210.572 38.630,209.596 40.600 C 209.269 41.260,208.911 41.890,208.800 42.000 C 208.426 42.371,207.656 44.190,207.190 45.800 C 206.936 46.680,206.564 47.953,206.364 48.628 C 206.148 49.355,206.001 105.430,206.002 186.028 L 206.004 322.200 206.964 323.400 L 207.923 324.600 221.062 324.713 C 234.441 324.828,246.039 324.380,250.000 323.595 C 251.210 323.356,252.876 323.059,253.703 322.937 C 254.529 322.815,255.305 322.555,255.426 322.358 C 255.548 322.161,256.177 322.000,256.824 322.000 C 257.471 322.000,258.000 321.826,258.000 321.613 C 258.000 321.399,257.775 321.295,257.500 321.380 C 249.848 323.749,245.139 324.171,226.163 324.186 C 206.722 324.201,207.519 324.306,206.826 321.653 C 206.590 320.751,206.434 269.270,206.415 185.800 C 206.383 44.852,206.325 50.141,207.938 44.917 C 209.385 40.231,214.540 34.614,219.444 32.380 C 221.065 31.642,221.634 31.185,220.900 31.211 C 220.735 31.217,219.520 31.797,218.200 32.500 M162.350 40.815 C 146.531 42.662,134.181 52.208,130.023 65.800 C 128.293 71.455,125.184 72.993,122.477 69.531 C 121.599 68.409,120.400 64.700,120.400 63.106 C 120.400 60.860,116.097 61.319,108.400 64.386 C 89.818 71.790,79.601 85.213,79.600 102.225 C 79.600 107.734,79.224 108.558,76.502 109.015 C 52.443 113.055,37.646 145.912,51.601 164.308 C 53.673 167.039,53.634 167.301,50.900 169.029 C 29.148 182.775,33.459 221.331,58.259 234.859 C 62.264 237.044,62.705 237.866,63.014 243.725 C 63.661 255.974,68.354 265.993,76.703 272.947 C 85.450 280.234,91.772 282.000,109.104 282.000 L 119.115 282.000 120.323 283.128 C 121.011 283.771,121.735 285.017,122.007 286.028 C 125.786 300.075,144.420 313.122,159.000 311.931 L 160.600 311.800 160.497 298.400 L 160.395 285.000 156.897 281.592 C 154.974 279.718,150.610 275.521,147.200 272.266 L 141.000 266.348 129.200 266.589 L 117.400 266.830 115.891 267.915 C 105.235 275.574,92.964 263.401,100.267 252.416 C 104.570 245.946,116.264 247.512,118.463 254.852 C 119.028 256.739,119.024 256.739,127.762 256.789 C 136.046 256.837,142.626 257.377,143.554 258.084 C 144.193 258.572,152.204 265.962,157.122 270.600 C 161.039 274.295,160.800 274.453,160.800 268.175 L 160.800 262.709 155.300 257.339 C 148.780 250.973,116.996 219.766,109.000 211.880 L 103.400 206.357 95.000 206.617 L 86.600 206.876 85.000 208.396 C 77.344 215.669,65.548 210.829,65.512 200.400 C 65.470 188.338,81.094 184.780,86.881 195.534 L 87.563 196.800 91.681 196.812 C 93.947 196.819,98.037 196.987,100.772 197.186 L 105.743 197.547 121.789 213.589 C 130.614 222.412,137.962 229.504,138.118 229.349 C 138.552 228.915,138.452 211.977,138.006 210.422 C 137.726 209.444,135.862 207.312,131.506 202.987 C 128.148 199.653,117.678 189.140,108.240 179.625 L 91.080 162.327 89.640 162.610 C 78.339 164.838,70.598 154.793,76.469 145.518 C 83.189 134.902,100.455 142.865,96.673 154.836 C 96.366 155.808,136.823 197.600,138.071 197.600 C 138.252 197.600,138.389 195.395,138.376 192.700 L 138.351 187.800 136.688 186.592 C 128.553 180.685,132.767 168.000,142.865 168.000 C 152.601 168.000,157.369 180.281,149.908 186.143 C 149.189 186.708,148.308 187.425,147.950 187.735 C 147.363 188.245,147.307 190.663,147.366 213.116 L 147.431 237.934 151.811 242.467 C 154.219 244.960,159.162 250.031,162.795 253.736 C 166.428 257.440,169.527 260.694,169.682 260.967 C 169.837 261.240,170.017 272.969,170.082 287.032 L 170.200 312.600 177.200 312.600 L 184.200 312.600 184.301 245.429 L 184.402 178.259 178.101 171.864 C 167.978 161.590,160.312 154.192,159.912 154.310 C 159.708 154.370,159.656 154.233,159.797 154.005 C 160.182 153.382,145.607 139.232,144.831 139.477 C 144.317 139.639,144.303 139.602,144.758 139.278 C 145.193 138.968,143.193 136.739,135.662 129.140 C 127.792 121.200,125.930 119.511,125.587 120.000 C 125.218 120.527,125.181 120.525,125.283 119.976 C 125.506 118.787,122.249 115.600,120.811 115.600 C 110.548 115.600,105.257 103.301,112.707 96.760 C 121.731 88.837,134.683 98.612,129.719 109.600 L 128.906 111.400 130.715 113.400 C 135.636 118.841,150.201 133.159,150.505 132.855 C 151.340 132.020,150.661 94.779,149.800 94.160 C 139.990 87.108,146.258 73.183,157.977 75.994 C 165.710 77.850,167.844 88.858,161.420 93.758 L 160.000 94.841 160.018 117.120 C 160.031 133.598,160.162 139.683,160.518 140.486 C 161.056 141.697,183.859 164.807,184.190 164.476 C 184.582 164.084,184.406 62.715,184.004 57.200 C 183.151 45.508,180.931 42.821,170.600 40.973 C 167.150 40.356,166.397 40.342,162.350 40.815 M231.800 40.840 C 222.526 42.192,219.297 45.990,218.399 56.600 C 217.658 65.372,217.991 264.825,218.749 265.739 C 219.476 266.615,231.227 266.692,235.200 265.847 C 247.669 263.194,255.018 252.936,253.646 240.097 C 252.526 229.608,252.898 227.792,256.529 226.034 C 262.139 223.319,265.861 227.238,266.289 236.310 C 267.311 257.991,257.489 271.547,237.000 276.735 C 234.761 277.302,227.871 277.844,221.500 277.954 L 218.800 278.000 218.800 295.138 L 218.800 312.277 224.856 312.550 C 255.647 313.940,274.020 305.283,279.847 286.638 C 281.319 281.929,282.703 281.401,291.200 282.306 C 308.217 284.118,324.615 277.016,332.952 264.222 C 337.241 257.641,338.462 253.366,339.013 243.000 C 339.328 237.076,339.115 237.454,343.307 235.372 C 364.681 224.753,371.978 194.139,357.580 175.488 C 356.438 174.010,355.301 172.786,355.052 172.769 C 354.058 172.701,348.980 172.701,330.722 172.770 C 310.088 172.849,308.719 172.747,303.517 170.743 C 292.255 166.404,284.278 156.017,282.796 143.763 C 282.604 142.175,282.045 140.150,281.527 139.163 C 278.984 134.325,280.454 127.607,284.481 125.658 C 291.906 122.063,298.706 130.020,295.200 138.200 C 292.228 145.134,297.119 155.125,305.400 159.035 C 310.484 161.436,312.249 161.600,332.956 161.600 L 351.546 161.600 352.325 160.500 C 354.518 157.408,355.672 146.122,354.380 140.400 C 351.295 126.730,344.354 117.471,333.200 112.147 C 329.036 110.159,328.887 110.101,326.280 109.447 C 323.754 108.814,322.017 107.864,321.970 107.091 C 321.954 106.821,321.895 104.170,321.840 101.200 C 321.746 96.191,321.214 92.924,320.047 90.200 C 313.736 75.454,304.056 67.177,288.000 62.798 C 287.010 62.528,285.678 62.148,285.040 61.953 C 284.402 61.759,283.457 61.600,282.940 61.600 L 282.000 61.600 281.940 69.300 C 281.907 73.535,281.919 77.501,281.967 78.113 C 282.672 87.062,278.907 95.780,271.517 102.310 C 256.664 115.437,253.462 117.350,248.719 115.929 C 242.994 114.213,244.520 110.090,253.527 102.935 C 271.077 88.994,270.464 90.001,270.780 74.600 C 271.093 59.377,270.953 58.693,266.491 53.627 C 258.678 44.757,243.447 39.143,231.800 40.840 M164.367 41.745 C 163.958 42.100,159.600 42.307,159.600 41.971 C 159.600 41.767,160.710 41.600,162.067 41.600 C 163.423 41.600,164.458 41.665,164.367 41.745 M171.900 41.887 C 171.295 41.978,170.305 41.978,169.700 41.887 C 169.095 41.795,169.590 41.720,170.800 41.720 C 172.010 41.720,172.505 41.795,171.900 41.887 M158.500 42.682 C 158.005 42.778,157.195 42.778,156.700 42.682 C 156.205 42.587,156.610 42.509,157.600 42.509 C 158.590 42.509,158.995 42.587,158.500 42.682 M175.600 42.800 C 175.600 43.020,176.005 43.214,176.500 43.232 C 176.995 43.249,177.187 43.350,176.927 43.456 C 176.667 43.562,175.677 43.376,174.727 43.043 C 173.015 42.443,173.011 42.438,174.300 42.419 C 175.015 42.409,175.600 42.580,175.600 42.800 M156.000 43.355 C 156.000 43.440,155.460 43.588,154.800 43.685 C 154.140 43.782,153.600 43.713,153.600 43.531 C 153.600 43.349,154.140 43.200,154.800 43.200 C 155.460 43.200,156.000 43.270,156.000 43.355 M179.057 44.600 C 179.824 45.367,179.242 45.358,178.224 44.587 C 177.788 44.258,177.669 44.000,177.952 44.000 C 178.230 44.000,178.727 44.270,179.057 44.600 M145.457 47.800 C 145.127 48.130,144.630 48.400,144.352 48.400 C 144.069 48.400,144.188 48.142,144.624 47.813 C 145.642 47.042,146.224 47.033,145.457 47.800 M142.789 49.484 C 140.799 50.859,136.542 55.063,135.684 56.500 C 135.323 57.105,134.876 57.600,134.690 57.600 C 134.357 57.600,134.571 57.120,135.382 56.048 C 135.794 55.504,141.211 50.044,142.129 49.249 C 142.388 49.024,142.865 48.831,143.189 48.820 C 143.538 48.808,143.375 49.079,142.789 49.484 M183.089 58.500 C 183.001 59.215,182.928 58.630,182.928 57.200 C 182.928 55.770,183.001 55.185,183.089 55.900 C 183.178 56.615,183.178 57.785,183.089 58.500 M133.810 59.440 C 133.391 60.243,133.204 60.379,133.202 59.883 C 133.200 59.236,134.045 57.935,134.307 58.181 C 134.366 58.236,134.142 58.803,133.810 59.440 M117.300 63.082 C 116.805 63.178,115.995 63.178,115.500 63.082 C 115.005 62.987,115.410 62.909,116.400 62.909 C 117.390 62.909,117.795 62.987,117.300 63.082 M113.900 63.876 C 113.515 63.976,112.885 63.976,112.500 63.876 C 112.115 63.775,112.430 63.693,113.200 63.693 C 113.970 63.693,114.285 63.775,113.900 63.876 M119.883 66.095 C 119.787 66.593,119.705 66.280,119.701 65.400 C 119.696 64.520,119.775 64.113,119.875 64.495 C 119.975 64.878,119.979 65.598,119.883 66.095 M106.500 66.282 C 106.005 66.378,105.600 66.623,105.600 66.828 C 105.600 67.033,105.195 67.194,104.700 67.186 C 103.811 67.172,103.813 67.164,104.800 66.600 C 105.350 66.286,106.160 66.046,106.600 66.069 C 107.284 66.103,107.270 66.134,106.500 66.282 M103.200 67.892 C 102.870 68.017,102.510 68.228,102.400 68.360 C 102.020 68.816,100.322 69.655,100.142 69.476 C 99.880 69.214,102.493 67.667,103.200 67.665 C 103.733 67.663,103.733 67.689,103.200 67.892 M98.395 70.700 C 98.392 70.865,97.762 71.407,96.995 71.904 C 95.613 72.799,95.120 72.781,96.117 71.871 C 96.575 71.454,98.034 70.486,98.300 70.424 C 98.355 70.411,98.398 70.535,98.395 70.700 M126.300 72.276 C 125.915 72.376,125.285 72.376,124.900 72.276 C 124.515 72.175,124.830 72.093,125.600 72.093 C 126.370 72.093,126.685 72.175,126.300 72.276 M95.200 73.200 C 95.200 73.420,95.007 73.600,94.771 73.600 C 94.228 73.600,87.600 80.249,87.600 80.794 C 87.600 81.017,87.408 81.200,87.173 81.200 C 86.938 81.200,87.108 80.691,87.551 80.069 C 88.785 78.336,93.484 73.600,93.969 73.600 C 94.206 73.600,94.400 73.420,94.400 73.200 C 94.400 72.980,94.580 72.800,94.800 72.800 C 95.020 72.800,95.200 72.980,95.200 73.200 M156.305 74.675 C 155.922 74.775,155.202 74.779,154.705 74.683 C 154.207 74.587,154.520 74.505,155.400 74.501 C 156.280 74.496,156.687 74.575,156.305 74.675 M86.303 82.500 C 86.027 82.995,85.696 83.490,85.568 83.600 C 85.440 83.710,85.081 84.385,84.770 85.100 C 84.459 85.815,84.056 86.400,83.875 86.400 C 83.694 86.400,84.140 85.320,84.865 84.000 C 85.591 82.680,86.325 81.600,86.496 81.600 C 86.667 81.600,86.580 82.005,86.303 82.500 M144.292 87.091 C 144.205 87.921,144.133 87.340,144.131 85.800 C 144.129 84.260,144.200 83.581,144.289 84.291 C 144.377 85.001,144.379 86.261,144.292 87.091 M166.289 86.900 C 166.201 87.615,166.128 87.030,166.128 85.600 C 166.128 84.170,166.201 83.585,166.289 84.300 C 166.378 85.015,166.378 86.185,166.289 86.900 M82.434 90.526 C 82.195 90.765,81.979 91.509,81.954 92.180 C 81.924 92.948,81.836 93.123,81.715 92.652 C 81.609 92.241,81.763 91.071,82.057 90.052 C 82.474 88.606,82.621 88.407,82.729 89.146 C 82.805 89.667,82.672 90.288,82.434 90.526 M123.967 93.456 C 124.058 93.535,123.563 93.600,122.867 93.600 C 122.170 93.600,121.600 93.417,121.600 93.192 C 121.600 92.834,123.489 93.044,123.967 93.456 M81.090 96.893 C 81.001 97.612,80.926 97.120,80.924 95.800 C 80.922 94.480,80.995 93.892,81.086 94.493 C 81.177 95.094,81.179 96.174,81.090 96.893 M149.490 98.093 C 149.401 98.812,149.326 98.320,149.324 97.000 C 149.322 95.680,149.395 95.092,149.486 95.693 C 149.577 96.294,149.579 97.374,149.490 98.093 M81.087 105.500 C 80.995 106.105,80.920 105.610,80.920 104.400 C 80.920 103.190,80.995 102.695,81.087 103.300 C 81.178 103.905,81.178 104.895,81.087 105.500 M108.290 105.693 C 108.201 106.412,108.126 105.920,108.124 104.600 C 108.122 103.280,108.195 102.692,108.286 103.293 C 108.377 103.894,108.379 104.974,108.290 105.693 M131.887 105.900 C 131.795 106.505,131.720 106.010,131.720 104.800 C 131.720 103.590,131.795 103.095,131.887 103.700 C 131.978 104.305,131.978 105.295,131.887 105.900 M78.000 109.753 C 78.000 110.100,76.013 110.254,75.526 109.946 C 75.191 109.733,75.544 109.610,76.500 109.606 C 77.325 109.603,78.000 109.669,78.000 109.753 M74.800 110.553 C 74.800 110.893,72.766 111.069,72.567 110.746 C 72.449 110.556,72.903 110.400,73.576 110.400 C 74.249 110.400,74.800 110.469,74.800 110.553 M66.300 113.876 C 65.915 113.976,65.600 114.225,65.600 114.429 C 65.600 114.633,65.296 114.800,64.924 114.800 C 64.334 114.800,64.346 114.725,65.024 114.213 C 65.451 113.890,66.070 113.641,66.400 113.659 C 66.820 113.683,66.790 113.748,66.300 113.876 M57.350 121.296 C 56.265 122.453,54.842 124.255,54.188 125.299 C 53.535 126.344,52.863 127.199,52.697 127.199 C 52.332 127.200,53.129 125.749,54.100 124.645 C 54.485 124.207,54.800 123.711,54.800 123.543 C 54.800 123.097,58.922 118.789,59.140 119.007 C 59.241 119.108,58.436 120.138,57.350 121.296 M51.946 129.177 C 51.648 129.850,51.272 130.400,51.109 130.400 C 50.946 130.400,51.112 129.772,51.478 129.005 C 52.288 127.307,52.706 127.460,51.946 129.177 M49.663 134.539 C 49.427 135.013,49.160 135.850,49.071 136.400 C 48.936 137.230,48.900 137.184,48.854 136.124 C 48.825 135.422,48.980 134.736,49.200 134.600 C 49.420 134.464,49.614 133.958,49.632 133.476 C 49.650 132.972,49.754 132.829,49.878 133.139 C 49.996 133.436,49.900 134.066,49.663 134.539 M48.282 140.100 C 48.187 140.595,48.109 140.190,48.109 139.200 C 48.109 138.210,48.187 137.805,48.282 138.300 C 48.378 138.795,48.378 139.605,48.282 140.100 M86.905 139.482 C 86.414 139.577,85.514 139.579,84.905 139.487 C 84.297 139.395,84.700 139.317,85.800 139.314 C 86.900 139.311,87.397 139.387,86.905 139.482 M47.498 150.481 C 47.424 152.306,47.362 150.920,47.362 147.400 C 47.361 143.880,47.422 142.386,47.497 144.081 C 47.572 145.776,47.572 148.656,47.498 150.481 M251.582 145.238 C 254.413 146.829,254.439 146.970,254.158 159.268 C 253.781 175.791,255.442 181.782,262.335 188.759 C 267.961 194.453,272.543 195.997,283.858 196.007 C 296.988 196.019,303.179 197.635,310.146 202.869 C 322.042 211.807,325.477 231.206,315.162 231.199 C 310.342 231.195,309.253 229.312,308.189 219.143 C 307.335 210.973,301.698 208.034,286.000 207.572 C 274.966 207.248,274.756 207.226,270.218 205.919 C 258.338 202.496,247.951 192.275,244.629 180.739 C 243.078 175.351,241.872 162.498,241.813 150.728 C 241.787 145.489,246.908 142.611,251.582 145.238 M73.892 153.712 C 73.808 154.640,73.741 153.780,73.742 151.800 C 73.743 149.820,73.812 149.060,73.895 150.112 C 73.977 151.164,73.976 152.784,73.892 153.712 M98.282 152.500 C 98.187 152.995,98.109 152.590,98.109 151.600 C 98.109 150.610,98.187 150.205,98.282 150.700 C 98.378 151.195,98.378 152.005,98.282 152.500 M48.856 156.647 C 49.089 157.114,49.192 157.834,49.086 158.247 C 48.951 158.775,48.879 158.670,48.846 157.900 C 48.821 157.295,48.620 156.800,48.400 156.800 C 48.180 156.800,48.025 156.125,48.054 155.300 C 48.092 154.263,48.159 154.109,48.271 154.800 C 48.360 155.350,48.624 156.181,48.856 156.647 M84.300 163.876 C 83.915 163.976,83.285 163.976,82.900 163.876 C 82.515 163.775,82.830 163.693,83.600 163.693 C 84.370 163.693,84.685 163.775,84.300 163.876 M51.600 170.000 C 51.600 170.220,51.375 170.400,51.100 170.400 C 50.644 170.401,50.167 170.755,47.263 173.253 C 45.804 174.508,45.837 173.876,47.299 172.560 C 50.051 170.085,51.600 169.162,51.600 170.000 M43.833 177.661 C 43.023 178.865,42.400 179.487,42.400 179.095 C 42.400 178.713,42.580 178.400,42.800 178.400 C 43.020 178.400,43.200 178.130,43.200 177.800 C 43.200 177.470,43.380 177.200,43.600 177.200 C 43.820 177.200,44.000 177.012,44.000 176.783 C 44.000 176.324,44.921 175.206,45.133 175.407 C 45.206 175.476,44.621 176.491,43.833 177.661 M41.583 181.900 C 41.530 182.853,40.033 184.956,40.017 184.100 C 40.008 183.605,40.180 183.200,40.400 183.200 C 40.620 183.200,40.800 182.840,40.800 182.400 C 40.800 181.960,40.980 181.600,41.200 181.600 C 41.420 181.600,41.592 181.735,41.583 181.900 M39.418 188.196 C 38.701 190.949,38.400 191.391,38.400 189.690 C 38.400 189.007,38.580 188.336,38.800 188.200 C 39.020 188.064,39.200 187.453,39.200 186.843 C 39.200 186.233,39.331 185.602,39.492 185.442 C 40.047 184.886,40.021 185.881,39.418 188.196 M74.705 188.675 C 74.322 188.775,73.602 188.779,73.105 188.683 C 72.607 188.587,72.920 188.505,73.800 188.501 C 74.680 188.496,75.087 188.575,74.705 188.675 M79.905 188.675 C 79.522 188.775,78.802 188.779,78.305 188.683 C 77.807 188.587,78.120 188.505,79.000 188.501 C 79.880 188.496,80.287 188.575,79.905 188.675 M25.790 190.100 C 25.409 191.624,25.863 206.468,26.362 208.800 C 26.621 210.010,26.936 211.587,27.061 212.304 C 27.186 213.021,27.468 213.718,27.687 213.854 C 27.923 214.000,27.994 213.794,27.860 213.350 C 26.495 208.821,25.932 203.554,26.063 196.547 C 26.203 189.036,26.182 188.534,25.790 190.100 M38.250 197.700 C 38.199 204.299,38.425 205.940,40.057 210.827 C 40.915 213.399,40.940 213.600,40.400 213.600 C 40.180 213.600,40.000 213.161,40.000 212.624 C 40.000 212.087,39.820 211.536,39.600 211.400 C 39.380 211.264,39.200 210.724,39.200 210.200 C 39.200 209.676,39.020 209.136,38.800 209.000 C 38.580 208.864,38.400 208.054,38.400 207.200 C 38.400 206.346,38.220 205.536,38.000 205.400 C 37.314 204.976,37.501 191.200,38.192 191.200 C 38.251 191.200,38.277 194.125,38.250 197.700 M148.297 198.884 C 148.218 200.268,148.153 199.240,148.153 196.600 C 148.152 193.960,148.216 192.828,148.295 194.084 C 148.374 195.341,148.375 197.501,148.297 198.884 M66.210 194.240 C 65.877 194.878,65.604 195.173,65.602 194.895 C 65.600 194.346,66.493 192.759,66.692 192.959 C 66.759 193.026,66.542 193.603,66.210 194.240 M102.305 196.275 C 101.922 196.375,101.202 196.379,100.705 196.283 C 100.207 196.187,100.520 196.105,101.400 196.101 C 102.280 196.096,102.687 196.175,102.305 196.275 M64.287 201.095 C 64.195 201.703,64.117 201.300,64.114 200.200 C 64.111 199.100,64.187 198.603,64.282 199.095 C 64.377 199.586,64.379 200.486,64.287 201.095 M148.276 203.500 C 148.175 203.885,148.093 203.570,148.093 202.800 C 148.093 202.030,148.175 201.715,148.276 202.100 C 148.376 202.485,148.376 203.115,148.276 203.500 M96.200 207.584 C 92.020 207.711,88.150 207.693,87.600 207.542 C 87.050 207.392,90.470 207.287,95.200 207.310 L 103.800 207.351 96.200 207.584 M70.976 211.013 C 71.412 211.342,71.531 211.600,71.248 211.600 C 70.970 211.600,70.473 211.330,70.143 211.000 C 69.376 210.233,69.958 210.242,70.976 211.013 M78.105 213.082 C 77.614 213.177,76.714 213.179,76.105 213.087 C 75.497 212.995,75.900 212.917,77.000 212.914 C 78.100 212.911,78.597 212.987,78.105 213.082 M28.058 215.000 C 28.059 215.440,28.406 216.520,28.829 217.400 C 29.621 219.047,29.482 218.078,28.571 215.600 C 28.258 214.748,28.057 214.513,28.058 215.000 M46.050 222.626 C 46.462 223.080,46.800 223.575,46.800 223.725 C 46.800 223.875,47.520 224.763,48.400 225.697 C 49.280 226.631,50.000 227.551,50.000 227.740 C 50.000 227.929,49.190 227.226,48.200 226.178 C 47.210 225.130,46.400 224.071,46.400 223.825 C 46.400 223.578,46.040 223.117,45.600 222.800 C 45.160 222.483,44.800 221.993,44.800 221.712 C 44.800 221.430,44.620 221.200,44.400 221.200 C 44.180 221.200,44.000 220.930,44.000 220.600 C 44.000 220.270,43.820 220.000,43.600 220.000 C 43.380 220.000,43.200 219.640,43.200 219.200 C 43.200 218.760,43.020 218.400,42.800 218.400 C 42.580 218.400,42.400 218.130,42.400 217.800 C 42.400 217.470,42.220 217.200,42.000 217.200 C 41.780 217.200,41.600 216.799,41.600 216.308 C 41.600 215.718,42.224 216.494,43.450 218.608 C 44.467 220.364,45.637 222.172,46.050 222.626 M30.407 221.088 C 30.396 221.875,34.094 228.272,36.138 231.000 C 39.302 235.223,49.142 244.000,50.713 244.000 C 50.910 244.000,51.291 245.845,51.559 248.100 C 52.109 252.712,52.712 255.864,53.243 256.895 C 53.439 257.277,53.600 257.941,53.600 258.371 C 53.600 258.801,53.780 259.264,54.000 259.400 C 54.220 259.536,54.400 259.935,54.400 260.286 C 54.400 261.059,58.406 269.345,58.871 269.533 C 59.052 269.607,59.200 269.877,59.200 270.133 C 59.201 270.390,59.666 271.140,60.235 271.800 C 60.804 272.460,61.555 273.483,61.905 274.073 C 63.653 277.024,75.868 287.465,76.654 286.680 C 76.757 286.576,76.158 286.077,75.321 285.570 C 66.934 280.491,59.017 271.087,55.646 262.200 C 55.146 260.880,54.570 259.487,54.368 259.105 C 54.166 258.723,54.000 258.059,54.000 257.629 C 54.000 257.199,53.839 256.748,53.642 256.626 C 53.445 256.505,53.190 255.729,53.075 254.903 C 52.960 254.076,52.660 251.870,52.407 250.000 C 52.155 248.130,51.882 246.150,51.802 245.600 C 51.721 245.050,51.643 244.375,51.628 244.100 C 51.612 243.825,51.412 243.600,51.182 243.600 C 49.532 243.600,41.256 236.582,37.738 232.200 C 36.157 230.231,32.800 225.394,32.800 225.086 C 32.800 224.999,32.263 223.954,31.607 222.764 C 30.951 221.574,30.411 220.820,30.407 221.088 M368.437 226.737 C 364.851 232.876,357.365 240.798,353.555 242.484 C 352.920 242.765,352.400 243.131,352.400 243.298 C 352.400 243.464,352.076 243.600,351.680 243.600 C 350.474 243.600,350.000 244.461,350.000 246.649 C 350.000 248.594,349.824 249.768,348.745 255.000 C 344.491 275.638,325.788 291.182,301.800 294.016 C 298.272 294.432,296.583 294.417,290.834 293.919 C 289.606 293.812,289.411 293.941,288.896 295.200 C 288.287 296.687,288.605 296.627,289.384 295.107 C 289.730 294.432,290.099 294.250,290.825 294.394 C 294.171 295.059,304.889 294.396,309.400 293.244 C 310.280 293.020,311.540 292.724,312.200 292.588 C 313.403 292.339,313.968 292.143,316.200 291.200 C 316.860 290.921,317.760 290.559,318.200 290.395 C 325.505 287.679,335.493 280.372,339.811 274.587 C 340.463 273.714,341.098 272.910,341.224 272.800 C 341.751 272.339,344.000 268.824,344.000 268.461 C 344.000 268.244,344.142 268.007,344.315 267.933 C 344.637 267.797,346.381 264.353,347.219 262.200 C 348.701 258.390,350.253 251.016,350.493 246.641 C 350.573 245.177,350.800 244.571,351.391 244.241 C 356.850 241.195,361.633 237.068,365.224 232.304 C 367.758 228.941,370.543 224.409,370.252 224.119 C 370.153 224.020,369.336 225.198,368.437 226.737 M53.127 230.300 C 53.419 230.575,53.496 230.800,53.298 230.800 C 53.101 230.800,52.503 230.310,51.970 229.712 C 51.019 228.645,51.785 229.035,53.127 230.300 M57.854 233.398 C 58.673 233.824,58.792 233.996,58.271 233.998 C 57.871 233.999,57.273 233.730,56.943 233.400 C 56.186 232.643,56.407 232.643,57.854 233.398 M62.196 236.396 C 62.826 237.054,63.265 237.657,63.171 237.738 C 63.077 237.818,62.410 237.280,61.689 236.542 C 60.967 235.804,60.529 235.200,60.714 235.200 C 60.899 235.200,61.566 235.738,62.196 236.396 M63.913 246.180 C 63.741 246.389,63.632 244.679,63.670 242.380 L 63.740 238.200 63.983 242.000 C 64.117 244.090,64.085 245.971,63.913 246.180 M64.753 249.500 L 64.706 251.800 64.375 249.825 C 64.074 248.026,64.152 247.200,64.624 247.200 C 64.721 247.200,64.779 248.235,64.753 249.500 M129.200 255.734 C 130.190 255.801,128.435 255.888,125.300 255.928 C 122.165 255.968,119.600 255.865,119.599 255.700 C 119.598 255.424,124.902 255.443,129.200 255.734 M97.496 259.200 C 97.459 260.520,97.287 261.600,97.115 261.600 C 96.942 261.600,96.800 260.520,96.800 259.200 C 96.800 257.880,96.971 256.800,97.181 256.800 C 97.391 256.800,97.532 257.880,97.496 259.200 M71.103 265.008 C 72.039 266.434,72.690 267.600,72.549 267.600 C 72.197 267.600,70.401 265.479,70.400 265.062 C 70.400 264.876,70.028 264.201,69.573 263.562 C 69.118 262.923,68.893 262.404,69.073 262.408 C 69.253 262.413,70.166 263.583,71.103 265.008 M123.100 267.891 C 122.275 267.978,120.925 267.978,120.100 267.891 C 119.275 267.805,119.950 267.734,121.600 267.734 C 123.250 267.734,123.925 267.805,123.100 267.891 M77.046 271.722 C 77.739 272.339,78.642 273.098,79.053 273.409 C 79.552 273.787,79.621 273.979,79.260 273.987 C 78.964 273.994,78.217 273.460,77.600 272.800 C 76.983 272.140,76.340 271.600,76.171 271.600 C 75.711 271.600,74.400 270.334,74.400 269.889 C 74.400 269.481,74.977 269.881,77.046 271.722 M110.500 271.489 C 109.785 271.578,108.615 271.578,107.900 271.489 C 107.185 271.401,107.770 271.328,109.200 271.328 C 110.630 271.328,111.215 271.401,110.500 271.489 M81.440 275.046 C 82.188 275.401,82.800 275.851,82.800 276.046 C 82.800 276.591,82.479 276.483,80.886 275.400 C 79.204 274.257,79.448 274.101,81.440 275.046 M84.305 276.766 C 84.687 276.968,85.690 277.433,86.532 277.801 C 87.375 278.168,87.972 278.561,87.858 278.675 C 87.622 278.911,83.200 276.962,83.200 276.622 C 83.200 276.306,83.509 276.346,84.305 276.766 M90.200 279.200 C 90.515 279.709,89.588 279.709,88.800 279.200 C 88.312 278.885,88.364 278.811,89.076 278.806 C 89.558 278.803,90.064 278.980,90.200 279.200 M92.700 279.876 C 92.315 279.976,91.685 279.976,91.300 279.876 C 90.915 279.775,91.230 279.693,92.000 279.693 C 92.770 279.693,93.085 279.775,92.700 279.876 M98.900 280.693 C 97.965 280.777,96.435 280.777,95.500 280.693 C 94.565 280.609,95.330 280.540,97.200 280.540 C 99.070 280.540,99.835 280.609,98.900 280.693 M117.100 280.676 C 116.715 280.776,116.085 280.776,115.700 280.676 C 115.315 280.575,115.630 280.493,116.400 280.493 C 117.170 280.493,117.485 280.575,117.100 280.676 M159.906 311.419 C 159.847 311.472,159.080 311.375,158.200 311.204 L 156.600 310.892 158.100 310.846 L 159.600 310.800 159.694 297.900 L 159.789 285.000 159.900 298.161 C 159.961 305.400,159.964 311.366,159.906 311.419 M123.572 287.300 C 123.587 287.465,123.420 287.600,123.200 287.600 C 122.980 287.600,122.813 287.105,122.828 286.500 C 122.854 285.474,123.462 286.127,123.572 287.300 M285.715 300.739 C 281.242 307.688,276.199 312.286,268.000 316.889 C 266.130 317.939,264.800 318.799,265.045 318.799 C 265.671 318.800,270.546 316.078,273.400 314.133 C 278.716 310.509,284.418 304.282,287.572 298.653 C 289.194 295.759,288.208 296.867,285.715 300.739 M140.576 306.213 C 141.254 306.725,141.266 306.800,140.676 306.800 C 140.304 306.800,140.000 306.633,140.000 306.429 C 140.000 306.225,139.685 305.976,139.300 305.876 C 138.810 305.748,138.780 305.683,139.200 305.659 C 139.530 305.641,140.149 305.890,140.576 306.213 M262.400 319.498 C 261.410 319.848,260.832 320.211,261.115 320.305 C 261.614 320.471,264.400 319.348,264.400 318.981 C 264.400 318.882,264.355 318.814,264.300 318.832 C 264.245 318.849,263.390 319.149,262.400 319.498 M259.000 320.800 C 258.229 321.131,258.231 321.145,259.076 321.172 C 259.558 321.187,260.064 321.020,260.200 320.800 C 260.492 320.327,260.101 320.327,259.000 320.800 M148.617 334.524 C 147.540 335.179,146.673 336.002,147.071 335.991 C 147.252 335.986,147.850 335.630,148.400 335.200 C 149.380 334.433,150.405 334.418,200.883 334.409 L 252.366 334.400 253.983 335.938 C 254.872 336.784,255.594 337.369,255.587 337.238 C 255.563 336.781,254.591 335.764,253.338 334.885 L 252.077 334.000 200.738 334.024 C 161.760 334.041,149.211 334.162,148.617 334.524 M145.443 338.233 C 145.102 339.121,145.151 344.104,145.506 344.662 C 145.668 344.916,145.800 343.431,145.800 341.362 C 145.800 337.290,145.801 337.299,145.443 338.233 M255.800 341.401 C 255.800 343.229,255.935 344.640,256.100 344.538 C 256.265 344.436,256.400 343.024,256.400 341.400 C 256.400 339.776,256.265 338.364,256.100 338.262 C 255.935 338.161,255.800 339.573,255.800 341.401 M146.000 345.845 C 146.000 346.068,146.584 346.779,147.299 347.425 L 148.597 348.600 147.605 347.400 C 147.059 346.740,146.474 346.029,146.306 345.820 C 146.116 345.584,146.000 345.594,146.000 345.845 M175.931 349.500 C 189.863 349.558,212.543 349.558,226.331 349.500 C 240.119 349.442,228.720 349.394,201.000 349.394 C 173.280 349.394,161.999 349.442,175.931 349.500 M157.867 360.667 C 157.720 360.813,157.611 361.308,157.625 361.767 C 157.649 362.533,157.682 362.523,158.034 361.642 C 158.426 360.663,158.344 360.189,157.867 360.667 M244.240 361.466 C 244.608 362.999,244.800 363.144,244.800 361.890 C 244.800 361.317,244.613 360.732,244.384 360.590 C 244.111 360.421,244.062 360.723,244.240 361.466 M245.080 365.091 C 245.390 367.100,245.600 367.261,245.600 365.490 C 245.600 364.697,245.431 363.943,245.224 363.815 C 244.999 363.676,244.941 364.191,245.080 365.091 M157.067 364.267 C 156.920 364.413,156.815 364.998,156.834 365.567 C 156.868 366.581,156.875 366.579,157.221 365.420 C 157.585 364.203,157.531 363.802,157.067 364.267 M156.267 367.867 C 156.120 368.013,156.015 368.598,156.034 369.167 C 156.068 370.181,156.075 370.179,156.421 369.020 C 156.785 367.803,156.731 367.402,156.267 367.867 M245.863 368.880 C 246.200 370.649,246.400 370.801,246.400 369.290 C 246.400 368.607,246.223 367.938,246.006 367.804 C 245.760 367.652,245.706 368.055,245.863 368.880 M155.467 371.067 C 155.320 371.213,155.215 371.798,155.234 372.367 C 155.268 373.381,155.275 373.379,155.621 372.220 C 155.985 371.003,155.931 370.602,155.467 371.067 M246.640 371.866 C 247.008 373.399,247.200 373.544,247.200 372.290 C 247.200 371.717,247.013 371.132,246.784 370.990 C 246.511 370.821,246.462 371.123,246.640 371.866 M247.412 374.400 C 247.735 375.894,248.451 378.493,248.790 379.400 C 249.477 381.239,250.000 383.098,250.000 383.705 C 250.000 384.061,250.161 384.452,250.357 384.574 C 250.564 384.702,250.576 384.249,250.384 383.497 C 249.666 380.676,249.521 380.171,249.212 379.400 C 249.036 378.960,248.672 377.790,248.403 376.800 C 247.809 374.609,247.071 372.822,247.412 374.400 M154.644 374.500 C 154.572 374.775,154.308 375.643,154.056 376.428 C 153.805 377.214,153.615 378.114,153.634 378.428 C 153.653 378.743,153.846 378.460,154.063 377.800 C 154.693 375.884,155.130 374.000,154.945 374.000 C 154.852 374.000,154.716 374.225,154.644 374.500 M153.049 379.815 C 152.912 380.173,152.815 380.766,152.834 381.133 C 152.853 381.500,153.027 381.269,153.221 380.620 C 153.598 379.358,153.465 378.733,153.049 379.815 M152.267 382.267 C 152.120 382.413,152.000 382.943,152.000 383.443 C 152.000 383.943,151.820 384.464,151.600 384.600 C 151.380 384.736,151.200 385.276,151.200 385.800 C 151.200 386.324,151.041 386.851,150.846 386.971 C 150.651 387.092,150.404 387.687,150.297 388.295 C 150.189 388.903,149.538 390.914,148.849 392.765 C 148.161 394.616,147.684 396.217,147.789 396.323 C 147.895 396.428,148.061 396.264,148.160 395.957 C 148.258 395.651,148.819 394.050,149.407 392.400 C 149.995 390.750,150.564 389.040,150.672 388.600 C 150.779 388.160,151.023 387.440,151.213 387.000 C 152.388 384.287,153.001 381.532,152.267 382.267 M250.840 385.525 C 250.789 386.194,252.052 390.082,252.254 389.879 C 252.338 389.795,252.063 388.663,251.643 387.364 C 251.223 386.064,250.862 385.236,250.840 385.525 M252.412 390.800 C 252.412 391.130,252.587 391.670,252.800 392.000 C 253.145 392.533,253.188 392.533,253.188 392.000 C 253.188 391.670,253.013 391.130,252.800 390.800 C 252.455 390.267,252.412 390.267,252.412 390.800 M197.800 404.400 L 197.000 404.744 197.800 404.766 C 198.240 404.778,198.870 404.613,199.200 404.400 C 199.995 403.886,198.996 403.886,197.800 404.400 M202.000 404.400 C 202.330 404.613,203.050 404.778,203.600 404.766 C 204.516 404.746,204.533 404.715,203.800 404.400 C 202.616 403.891,201.213 403.891,202.000 404.400 M192.967 407.029 L 191.400 408.458 193.000 407.345 C 193.880 406.733,194.675 406.180,194.767 406.116 C 194.858 406.052,194.843 405.910,194.733 405.800 C 194.623 405.690,193.828 406.243,192.967 407.029 M206.800 405.973 C 206.800 406.208,206.973 406.400,207.185 406.400 C 207.397 406.400,208.326 407.165,209.249 408.100 C 210.663 409.532,210.788 409.598,210.047 408.516 C 209.067 407.084,206.800 405.309,206.800 405.973 M211.612 412.400 C 211.612 412.730,211.787 413.270,212.000 413.600 C 212.345 414.133,212.388 414.133,212.388 413.600 C 212.388 413.270,212.213 412.730,212.000 412.400 C 211.655 411.867,211.612 411.867,211.612 412.400 M262.656 415.188 C 263.042 415.841,263.411 416.323,263.475 416.259 C 263.688 416.045,262.606 414.006,262.277 414.003 C 262.100 414.001,262.270 414.534,262.656 415.188 M139.068 415.100 C 138.004 416.875,137.190 418.524,137.316 418.649 C 137.401 418.734,137.961 417.903,138.560 416.802 C 139.419 415.224,139.841 413.809,139.068 415.100 M263.790 417.101 C 264.981 419.406,265.194 419.726,265.189 419.200 C 265.185 418.870,264.811 418.150,264.356 417.600 C 263.902 417.050,263.647 416.826,263.790 417.101 M136.667 419.467 C 135.397 420.737,137.411 424.158,142.045 428.600 L 145.383 431.800 141.747 428.000 C 137.743 423.816,136.639 422.076,136.893 420.347 C 137.075 419.105,137.066 419.068,136.667 419.467 M265.270 420.600 C 265.458 422.234,263.707 424.737,258.832 429.800 L 253.826 435.000 258.819 430.100 C 264.110 424.907,266.358 421.707,265.588 420.463 C 265.227 419.880,265.189 419.897,265.270 420.600 M192.193 423.193 C 193.048 424.069,193.811 424.723,193.887 424.646 C 194.058 424.476,191.217 421.600,190.879 421.600 C 190.746 421.600,191.337 422.317,192.193 423.193 M208.860 423.042 C 208.562 423.378,208.399 423.732,208.495 423.829 C 208.592 423.926,208.998 423.644,209.398 423.202 C 209.797 422.761,209.961 422.407,209.762 422.415 C 209.563 422.424,209.157 422.705,208.860 423.042 M194.965 425.324 C 197.143 426.680,197.048 426.070,197.333 440.634 C 197.479 448.095,197.599 467.993,197.599 484.851 C 197.600 517.224,197.667 516.052,195.800 516.511 C 195.055 516.694,195.060 516.710,195.871 516.754 C 198.104 516.872,198.000 518.685,197.999 479.471 C 197.998 459.632,197.879 439.710,197.733 435.200 L 197.468 427.000 196.292 425.900 C 195.645 425.295,194.909 424.811,194.658 424.824 C 194.406 424.836,194.544 425.061,194.965 425.324 M203.818 427.899 C 203.396 428.998,204.046 515.311,204.481 516.000 C 204.810 516.521,204.835 516.517,204.671 515.974 C 204.567 515.629,204.420 495.514,204.346 471.274 C 204.271 447.033,204.182 427.200,204.148 427.200 C 204.114 427.200,203.965 427.514,203.818 427.899 M149.451 436.699 C 153.564 441.217,153.324 440.941,155.400 443.550 C 156.280 444.655,157.145 445.569,157.322 445.580 C 157.672 445.602,155.484 442.908,152.000 439.028 C 150.790 437.680,149.051 435.727,148.137 434.689 C 147.222 433.650,146.345 432.800,146.187 432.800 C 146.030 432.800,147.499 434.555,149.451 436.699 M253.000 435.744 C 245.486 444.455,243.889 446.402,244.269 446.388 C 244.451 446.381,245.178 445.616,245.885 444.688 C 246.592 443.759,247.640 442.460,248.215 441.800 C 250.234 439.481,251.733 437.789,252.733 436.704 C 253.288 436.101,253.665 435.535,253.571 435.445 C 253.477 435.354,253.220 435.489,253.000 435.744 M162.468 452.552 C 162.981 453.343,163.547 453.992,163.727 453.995 C 164.099 454.001,162.582 451.759,161.949 451.369 C 161.722 451.228,161.955 451.760,162.468 452.552 M236.598 456.002 C 236.198 456.444,235.966 456.899,236.082 457.015 C 236.197 457.130,236.590 456.769,236.955 456.212 C 237.752 454.996,237.593 454.902,236.598 456.002 M166.902 458.717 C 167.726 459.864,168.400 460.954,168.400 461.139 C 168.400 461.324,168.802 461.819,169.293 462.238 C 169.784 462.657,169.997 462.730,169.766 462.400 C 169.534 462.070,168.678 460.773,167.863 459.518 C 167.048 458.262,166.161 457.099,165.892 456.933 C 165.624 456.767,166.078 457.570,166.902 458.717 M234.998 458.402 C 234.598 458.844,234.366 459.299,234.482 459.415 C 234.597 459.530,234.990 459.169,235.355 458.612 C 236.152 457.396,235.993 457.302,234.998 458.402 M233.600 460.322 C 233.600 460.500,232.734 461.985,231.675 463.622 C 229.245 467.381,229.116 467.600,229.323 467.600 C 229.417 467.600,229.961 466.894,230.531 466.032 C 233.454 461.616,234.386 460.000,234.012 460.000 C 233.786 460.000,233.600 460.145,233.600 460.322 M170.809 464.611 C 170.814 464.825,171.170 465.450,171.600 466.000 C 172.030 466.550,172.386 467.225,172.391 467.500 C 172.396 467.775,172.601 468.000,172.846 468.000 C 173.259 468.000,172.918 467.325,171.339 465.011 C 171.042 464.577,170.804 464.397,170.809 464.611 M226.586 472.100 L 225.952 473.400 226.767 472.400 C 227.552 471.437,227.808 470.800,227.410 470.800 C 227.306 470.800,226.935 471.385,226.586 472.100 M181.200 483.779 C 181.200 483.877,181.810 485.272,182.556 486.879 C 184.301 490.636,184.974 492.184,185.827 494.400 C 186.208 495.390,186.686 496.380,186.889 496.600 C 187.238 496.979,186.201 494.117,184.969 491.300 C 184.656 490.585,184.149 489.415,183.842 488.700 C 181.939 484.265,181.200 482.888,181.200 483.779 M217.991 489.024 C 217.777 489.587,217.151 491.032,216.601 492.235 C 216.050 493.439,215.600 494.510,215.600 494.616 C 215.600 494.722,215.260 495.572,214.844 496.504 C 213.544 499.421,212.758 501.692,212.974 501.907 C 213.088 502.021,213.292 501.774,213.428 501.357 C 214.137 499.182,214.564 498.044,215.247 496.504 C 215.661 495.572,216.000 494.722,216.000 494.616 C 216.000 494.510,216.450 493.439,217.001 492.235 C 218.323 489.344,218.825 488.000,218.580 488.000 C 218.470 488.000,218.205 488.461,217.991 489.024 M187.222 497.481 C 187.210 497.746,187.365 498.376,187.567 498.881 C 187.770 499.387,188.044 500.141,188.177 500.557 C 188.310 500.974,188.511 501.222,188.623 501.110 C 188.736 500.997,188.472 500.027,188.036 498.953 C 187.600 497.879,187.234 497.217,187.222 497.481 M189.628 504.276 C 189.613 504.758,189.780 505.264,190.000 505.400 C 190.473 505.692,190.473 505.301,190.000 504.200 C 189.669 503.429,189.655 503.431,189.628 504.276 M211.646 504.667 C 211.621 504.924,211.484 505.464,211.341 505.867 C 211.140 506.436,211.194 506.497,211.579 506.142 C 211.852 505.891,211.989 505.351,211.884 504.942 C 211.779 504.534,211.672 504.410,211.646 504.667 M209.246 511.867 C 209.221 512.124,209.084 512.664,208.941 513.067 C 208.740 513.636,208.794 513.697,209.179 513.342 C 209.452 513.091,209.589 512.551,209.484 512.142 C 209.379 511.734,209.272 511.610,209.246 511.867 M207.652 515.427 C 207.137 515.962,206.887 516.400,207.096 516.400 C 207.558 516.400,208.997 514.864,208.758 514.625 C 208.665 514.531,208.167 514.893,207.652 515.427 " stroke="none" fill="#a6cfe9" fill-rule="evenodd"></path><path id="path2" d="M0.000 264.400 L 0.000 528.800 200.000 528.800 L 400.000 528.800 400.000 264.400 L 400.000 0.000 200.000 0.000 L 0.000 0.000 0.000 264.400 M246.717 29.433 C 253.488 30.782,266.415 36.208,268.000 38.366 C 268.110 38.516,268.830 39.064,269.600 39.585 C 271.318 40.746,279.200 48.637,279.200 49.196 C 279.200 49.418,279.764 49.600,280.454 49.600 C 283.983 49.600,294.792 52.098,299.400 53.979 C 302.006 55.043,308.800 58.568,308.800 58.857 C 308.800 59.045,309.036 59.200,309.325 59.200 C 309.613 59.200,310.206 59.533,310.643 59.939 C 311.079 60.346,311.640 60.751,311.889 60.839 C 313.727 61.492,323.675 71.480,324.360 73.361 C 324.448 73.602,324.637 73.890,324.779 74.000 C 325.532 74.580,327.831 78.364,329.645 82.008 C 331.792 86.321,333.998 94.180,334.001 97.526 C 334.003 98.909,334.120 99.047,335.901 99.770 C 336.946 100.193,338.943 101.228,340.341 102.070 C 341.738 102.911,343.009 103.600,343.165 103.600 C 343.321 103.600,343.799 103.915,344.226 104.300 C 344.653 104.685,346.067 105.810,347.368 106.800 C 353.215 111.250,362.000 122.184,362.000 125.012 C 362.000 125.335,362.180 125.600,362.400 125.600 C 362.620 125.600,362.800 125.872,362.800 126.205 C 362.800 126.538,362.959 127.123,363.153 127.505 C 367.280 135.618,368.237 149.939,365.389 161.000 C 365.106 162.100,364.758 163.290,364.616 163.645 C 364.445 164.069,365.109 165.290,366.556 167.214 C 367.766 168.822,369.684 172.042,370.818 174.369 C 371.952 176.696,373.042 178.913,373.240 179.295 C 373.438 179.677,373.600 180.341,373.600 180.771 C 373.600 181.201,373.780 181.664,374.000 181.800 C 374.220 181.936,374.400 182.476,374.400 183.000 C 374.400 183.524,374.580 184.064,374.800 184.200 C 375.020 184.336,375.200 185.146,375.200 186.000 C 375.200 186.854,375.358 187.651,375.551 187.770 C 376.832 188.561,376.832 209.039,375.551 209.830 C 375.358 209.949,375.200 210.746,375.200 211.600 C 375.200 212.454,375.020 213.264,374.800 213.400 C 374.580 213.536,374.400 214.076,374.400 214.600 C 374.400 215.124,374.220 215.664,374.000 215.800 C 373.780 215.936,373.600 216.399,373.600 216.829 C 373.600 217.259,373.438 217.923,373.241 218.305 C 373.043 218.687,372.100 220.620,371.144 222.600 C 367.049 231.080,361.440 237.721,354.553 242.243 C 353.248 243.099,351.825 243.998,351.391 244.241 C 350.800 244.571,350.573 245.177,350.493 246.641 C 350.253 251.016,348.701 258.390,347.219 262.200 C 346.381 264.353,344.637 267.797,344.315 267.933 C 344.142 268.007,344.000 268.244,344.000 268.461 C 344.000 268.824,341.751 272.339,341.224 272.800 C 341.098 272.910,340.463 273.714,339.811 274.587 C 335.493 280.372,325.505 287.679,318.200 290.395 C 317.169 290.779,315.663 291.382,314.400 291.916 C 313.850 292.149,312.860 292.451,312.200 292.588 C 311.540 292.724,310.280 293.020,309.400 293.244 C 304.890 294.396,294.165 295.060,290.828 294.394 C 289.964 294.222,289.691 294.519,288.379 297.061 C 283.893 305.749,276.414 313.134,267.600 317.577 C 262.574 320.111,261.918 320.400,261.186 320.400 C 260.780 320.400,260.336 320.580,260.200 320.800 C 260.064 321.020,259.513 321.200,258.976 321.200 C 258.439 321.200,258.000 321.380,258.000 321.600 C 258.000 321.820,257.471 322.000,256.824 322.000 C 256.177 322.000,255.548 322.161,255.426 322.358 C 255.305 322.555,254.529 322.815,253.703 322.937 C 252.876 323.059,251.210 323.356,250.000 323.595 C 246.039 324.380,234.441 324.828,221.062 324.713 L 207.923 324.600 206.964 323.400 L 206.004 322.200 206.002 186.028 C 206.001 96.394,206.137 49.403,206.400 48.528 C 206.620 47.798,206.992 46.525,207.226 45.700 C 207.657 44.184,208.430 42.368,208.800 42.000 C 208.911 41.890,209.269 41.260,209.596 40.600 C 211.382 36.995,218.989 31.290,223.400 30.248 C 224.060 30.092,225.320 29.773,226.200 29.539 C 230.594 28.371,241.118 28.317,246.717 29.433 M176.200 29.492 C 183.352 30.859,193.200 37.857,193.200 41.572 C 193.200 41.807,193.380 42.000,193.600 42.000 C 193.820 42.000,194.000 42.349,194.000 42.776 C 194.000 43.203,194.159 43.651,194.352 43.770 C 194.746 44.014,194.973 44.865,195.794 49.179 C 196.473 52.749,196.787 323.773,196.112 324.448 C 194.917 325.643,150.743 324.428,149.420 323.163 C 149.211 322.963,148.457 322.800,147.744 322.800 C 147.031 322.800,146.336 322.620,146.200 322.400 C 146.064 322.180,145.524 322.000,145.000 322.000 C 144.476 322.000,143.936 321.820,143.800 321.600 C 143.664 321.380,143.201 321.200,142.771 321.200 C 142.341 321.200,141.677 321.041,141.295 320.847 C 140.913 320.652,140.150 320.317,139.600 320.103 C 136.184 318.767,128.431 314.312,126.742 312.714 C 126.443 312.431,125.341 311.510,124.291 310.667 C 120.694 307.775,115.769 301.309,112.975 295.811 C 112.161 294.208,111.557 293.461,111.175 293.581 C 109.220 294.195,94.541 293.348,90.800 292.405 C 89.810 292.155,88.460 291.849,87.800 291.725 C 87.140 291.601,86.420 291.368,86.200 291.208 C 85.980 291.048,84.945 290.671,83.900 290.371 C 82.855 290.071,82.000 289.685,82.000 289.513 C 82.000 289.341,81.747 289.200,81.438 289.200 C 80.772 289.200,77.459 287.532,77.267 287.100 C 77.193 286.935,76.960 286.800,76.749 286.800 C 75.066 286.800,63.642 277.005,61.905 274.073 C 61.555 273.483,60.804 272.460,60.235 271.800 C 59.666 271.140,59.201 270.390,59.200 270.133 C 59.200 269.877,59.052 269.607,58.871 269.533 C 58.406 269.345,54.400 261.059,54.400 260.286 C 54.400 259.935,54.220 259.536,54.000 259.400 C 53.780 259.264,53.600 258.801,53.600 258.371 C 53.600 257.941,53.439 257.277,53.243 256.895 C 52.712 255.864,52.109 252.712,51.559 248.100 C 51.291 245.845,50.910 244.000,50.713 244.000 C 47.222 244.000,34.402 229.998,30.936 222.400 C 29.657 219.595,28.858 217.645,28.398 216.200 C 28.118 215.320,27.748 214.240,27.575 213.800 C 27.402 213.360,27.146 212.460,27.005 211.800 C 26.865 211.140,26.553 209.700,26.312 208.600 C 25.749 206.026,25.742 190.416,26.304 187.800 C 26.540 186.700,26.916 185.170,27.140 184.400 C 27.363 183.630,27.663 182.550,27.806 182.000 C 28.199 180.494,28.934 178.668,30.730 174.737 C 32.015 171.927,36.013 165.486,36.760 165.025 C 37.286 164.700,37.351 162.540,36.844 162.227 C 36.649 162.106,36.396 161.421,36.284 160.704 C 36.171 159.987,35.770 158.140,35.393 156.600 C 34.533 153.094,34.383 141.731,35.153 138.400 C 36.601 132.134,37.383 129.621,38.743 126.862 C 39.214 125.906,39.600 124.871,39.600 124.562 C 39.600 124.253,39.780 124.000,40.000 124.000 C 40.220 124.000,40.400 123.640,40.400 123.200 C 40.400 122.760,40.538 122.400,40.706 122.400 C 40.874 122.400,41.306 121.725,41.666 120.900 C 42.983 117.881,47.821 112.015,52.652 107.578 C 54.947 105.471,59.820 102.299,63.000 100.842 C 64.540 100.137,66.070 99.415,66.400 99.238 C 66.788 99.031,67.156 97.799,67.440 95.758 C 67.682 94.021,68.006 92.060,68.160 91.400 C 68.600 89.514,69.257 87.110,69.690 85.800 C 70.369 83.747,74.095 76.400,74.457 76.400 C 74.645 76.400,74.800 76.164,74.800 75.875 C 74.800 75.587,75.121 75.002,75.514 74.575 C 75.907 74.149,76.492 73.424,76.814 72.965 C 78.788 70.152,84.982 64.005,88.600 61.269 C 90.317 59.971,92.820 58.400,93.172 58.400 C 93.407 58.400,93.600 58.241,93.600 58.047 C 93.600 57.852,93.915 57.590,94.300 57.464 C 94.685 57.338,95.720 56.810,96.600 56.291 C 99.496 54.581,106.687 51.941,110.600 51.151 C 114.106 50.444,120.139 49.626,122.000 49.607 C 124.091 49.585,124.227 49.507,125.760 47.451 C 127.243 45.463,130.663 42.043,132.651 40.560 C 133.503 39.925,134.290 39.300,134.400 39.172 C 136.576 36.645,148.577 31.213,154.600 30.030 C 155.920 29.770,157.630 29.405,158.400 29.217 C 160.189 28.782,173.565 28.988,176.200 29.492 M159.600 41.971 C 159.600 42.307,163.958 42.100,164.367 41.745 C 164.458 41.665,163.423 41.600,162.067 41.600 C 160.710 41.600,159.600 41.767,159.600 41.971 M169.700 41.887 C 170.305 41.978,171.295 41.978,171.900 41.887 C 172.505 41.795,172.010 41.720,170.800 41.720 C 169.590 41.720,169.095 41.795,169.700 41.887 M156.700 42.682 C 157.195 42.778,158.005 42.778,158.500 42.682 C 158.995 42.587,158.590 42.509,157.600 42.509 C 156.610 42.509,156.205 42.587,156.700 42.682 M174.727 43.043 C 175.677 43.376,176.667 43.562,176.927 43.456 C 177.187 43.350,176.995 43.249,176.500 43.232 C 176.005 43.214,175.600 43.020,175.600 42.800 C 175.600 42.580,175.015 42.409,174.300 42.419 C 173.011 42.438,173.015 42.443,174.727 43.043 M153.600 43.531 C 153.600 43.713,154.140 43.782,154.800 43.685 C 155.460 43.588,156.000 43.440,156.000 43.355 C 156.000 43.270,155.460 43.200,154.800 43.200 C 154.140 43.200,153.600 43.349,153.600 43.531 M178.224 44.587 C 179.242 45.358,179.824 45.367,179.057 44.600 C 178.727 44.270,178.230 44.000,177.952 44.000 C 177.669 44.000,177.788 44.258,178.224 44.587 M144.624 47.813 C 144.188 48.142,144.069 48.400,144.352 48.400 C 144.630 48.400,145.127 48.130,145.457 47.800 C 146.224 47.033,145.642 47.042,144.624 47.813 M142.129 49.249 C 141.211 50.044,135.794 55.504,135.382 56.048 C 134.571 57.120,134.357 57.600,134.690 57.600 C 134.876 57.600,135.323 57.105,135.684 56.500 C 136.542 55.063,140.799 50.859,142.789 49.484 C 143.375 49.079,143.538 48.808,143.189 48.820 C 142.865 48.831,142.388 49.024,142.129 49.249 M182.928 57.200 C 182.928 58.630,183.001 59.215,183.089 58.500 C 183.178 57.785,183.178 56.615,183.089 55.900 C 183.001 55.185,182.928 55.770,182.928 57.200 M133.700 58.623 C 133.425 58.922,133.201 59.489,133.202 59.883 C 133.204 60.379,133.391 60.243,133.810 59.440 C 134.489 58.137,134.446 57.814,133.700 58.623 M115.500 63.082 C 115.995 63.178,116.805 63.178,117.300 63.082 C 117.795 62.987,117.390 62.909,116.400 62.909 C 115.410 62.909,115.005 62.987,115.500 63.082 M112.500 63.876 C 112.885 63.976,113.515 63.976,113.900 63.876 C 114.285 63.775,113.970 63.693,113.200 63.693 C 112.430 63.693,112.115 63.775,112.500 63.876 M119.701 65.400 C 119.705 66.280,119.787 66.593,119.883 66.095 C 119.979 65.598,119.975 64.878,119.875 64.495 C 119.775 64.113,119.696 64.520,119.701 65.400 M104.800 66.600 C 103.813 67.164,103.811 67.172,104.700 67.186 C 105.195 67.194,105.600 67.033,105.600 66.828 C 105.600 66.623,106.005 66.378,106.500 66.282 C 107.270 66.134,107.284 66.103,106.600 66.069 C 106.160 66.046,105.350 66.286,104.800 66.600 M101.281 68.481 C 99.808 69.391,99.790 69.954,101.261 69.128 C 101.777 68.837,102.290 68.492,102.400 68.360 C 102.510 68.228,102.870 68.017,103.200 67.892 C 103.733 67.689,103.733 67.663,103.200 67.665 C 102.870 67.666,102.007 68.033,101.281 68.481 M97.417 70.924 C 96.421 71.529,95.600 72.276,95.600 72.575 C 95.600 72.703,96.228 72.401,96.995 71.904 C 98.716 70.789,99.098 69.901,97.417 70.924 M124.900 72.276 C 125.285 72.376,125.915 72.376,126.300 72.276 C 126.685 72.175,126.370 72.093,125.600 72.093 C 124.830 72.093,124.515 72.175,124.900 72.276 M94.400 73.200 C 94.400 73.420,94.206 73.600,93.969 73.600 C 93.484 73.600,88.785 78.336,87.551 80.069 C 87.108 80.691,86.938 81.200,87.173 81.200 C 87.408 81.200,87.600 81.017,87.600 80.794 C 87.600 80.249,94.228 73.600,94.771 73.600 C 95.007 73.600,95.200 73.420,95.200 73.200 C 95.200 72.980,95.020 72.800,94.800 72.800 C 94.580 72.800,94.400 72.980,94.400 73.200 M154.705 74.683 C 155.202 74.779,155.922 74.775,156.305 74.675 C 156.687 74.575,156.280 74.496,155.400 74.501 C 154.520 74.505,154.207 74.587,154.705 74.683 M84.865 84.000 C 84.140 85.320,83.694 86.400,83.875 86.400 C 84.056 86.400,84.459 85.815,84.770 85.100 C 85.081 84.385,85.440 83.710,85.568 83.600 C 86.060 83.176,86.791 81.600,86.496 81.600 C 86.325 81.600,85.591 82.680,84.865 84.000 M144.131 85.800 C 144.133 87.340,144.205 87.921,144.292 87.091 C 144.379 86.261,144.377 85.001,144.289 84.291 C 144.200 83.581,144.129 84.260,144.131 85.800 M166.128 85.600 C 166.128 87.030,166.201 87.615,166.289 86.900 C 166.378 86.185,166.378 85.015,166.289 84.300 C 166.201 83.585,166.128 84.170,166.128 85.600 M82.057 90.052 C 81.763 91.071,81.609 92.241,81.715 92.652 C 81.836 93.123,81.924 92.948,81.954 92.180 C 81.979 91.509,82.195 90.765,82.434 90.526 C 82.672 90.288,82.805 89.667,82.729 89.146 C 82.621 88.407,82.474 88.606,82.057 90.052 M121.600 93.192 C 121.600 93.417,122.170 93.600,122.867 93.600 C 124.323 93.600,124.270 93.425,122.700 93.049 C 122.047 92.892,121.600 92.950,121.600 93.192 M80.924 95.800 C 80.926 97.120,81.001 97.612,81.090 96.893 C 81.179 96.174,81.177 95.094,81.086 94.493 C 80.995 93.892,80.922 94.480,80.924 95.800 M149.324 97.000 C 149.326 98.320,149.401 98.812,149.490 98.093 C 149.579 97.374,149.577 96.294,149.486 95.693 C 149.395 95.092,149.322 95.680,149.324 97.000 M80.920 104.400 C 80.920 105.610,80.995 106.105,81.087 105.500 C 81.178 104.895,81.178 103.905,81.087 103.300 C 80.995 102.695,80.920 103.190,80.920 104.400 M108.124 104.600 C 108.126 105.920,108.201 106.412,108.290 105.693 C 108.379 104.974,108.377 103.894,108.286 103.293 C 108.195 102.692,108.122 103.280,108.124 104.600 M131.720 104.800 C 131.720 106.010,131.795 106.505,131.887 105.900 C 131.978 105.295,131.978 104.305,131.887 103.700 C 131.795 103.095,131.720 103.590,131.720 104.800 M75.526 109.946 C 76.013 110.254,78.000 110.100,78.000 109.753 C 78.000 109.669,77.325 109.603,76.500 109.606 C 75.544 109.610,75.191 109.733,75.526 109.946 M72.567 110.746 C 72.766 111.069,74.800 110.893,74.800 110.553 C 74.800 110.469,74.249 110.400,73.576 110.400 C 72.903 110.400,72.449 110.556,72.567 110.746 M65.024 114.213 C 64.346 114.725,64.334 114.800,64.924 114.800 C 65.296 114.800,65.600 114.633,65.600 114.429 C 65.600 114.225,65.915 113.976,66.300 113.876 C 66.790 113.748,66.820 113.683,66.400 113.659 C 66.070 113.641,65.451 113.890,65.024 114.213 M56.878 121.030 C 55.735 122.244,54.800 123.375,54.800 123.543 C 54.800 123.711,54.485 124.207,54.100 124.645 C 53.129 125.749,52.332 127.200,52.697 127.199 C 52.863 127.199,53.535 126.344,54.188 125.299 C 54.842 124.255,56.265 122.453,57.350 121.296 C 58.436 120.138,59.241 119.108,59.140 119.007 C 59.039 118.905,58.021 119.816,56.878 121.030 M51.478 129.005 C 51.112 129.772,50.946 130.400,51.109 130.400 C 51.466 130.400,52.560 128.026,52.315 127.782 C 52.221 127.687,51.844 128.238,51.478 129.005 M49.632 133.476 C 49.614 133.958,49.420 134.464,49.200 134.600 C 48.980 134.736,48.825 135.422,48.854 136.124 C 48.900 137.184,48.936 137.230,49.071 136.400 C 49.160 135.850,49.427 135.013,49.663 134.539 C 49.900 134.066,49.996 133.436,49.878 133.139 C 49.754 132.829,49.650 132.972,49.632 133.476 M48.109 139.200 C 48.109 140.190,48.187 140.595,48.282 140.100 C 48.378 139.605,48.378 138.795,48.282 138.300 C 48.187 137.805,48.109 138.210,48.109 139.200 M84.905 139.487 C 85.514 139.579,86.414 139.577,86.905 139.482 C 87.397 139.387,86.900 139.311,85.800 139.314 C 84.700 139.317,84.297 139.395,84.905 139.487 M47.362 147.400 C 47.362 150.920,47.424 152.306,47.498 150.481 C 47.572 148.656,47.572 145.776,47.497 144.081 C 47.422 142.386,47.361 143.880,47.362 147.400 M73.742 151.800 C 73.741 153.780,73.808 154.640,73.892 153.712 C 73.976 152.784,73.977 151.164,73.895 150.112 C 73.812 149.060,73.743 149.820,73.742 151.800 M98.109 151.600 C 98.109 152.590,98.187 152.995,98.282 152.500 C 98.378 152.005,98.378 151.195,98.282 150.700 C 98.187 150.205,98.109 150.610,98.109 151.600 M48.054 155.300 C 48.025 156.125,48.180 156.800,48.400 156.800 C 48.620 156.800,48.821 157.295,48.846 157.900 C 48.879 158.670,48.951 158.775,49.086 158.247 C 49.192 157.834,49.089 157.114,48.856 156.647 C 48.624 156.181,48.360 155.350,48.271 154.800 C 48.159 154.109,48.092 154.263,48.054 155.300 M82.900 163.876 C 83.285 163.976,83.915 163.976,84.300 163.876 C 84.685 163.775,84.370 163.693,83.600 163.693 C 82.830 163.693,82.515 163.775,82.900 163.876 M49.800 170.508 C 47.980 171.845,45.977 173.710,46.162 173.895 C 46.252 173.985,46.748 173.697,47.263 173.253 C 50.167 170.755,50.644 170.401,51.100 170.400 C 51.375 170.400,51.600 170.220,51.600 170.000 C 51.600 169.398,51.127 169.532,49.800 170.508 M44.500 175.823 C 44.225 176.122,44.000 176.554,44.000 176.783 C 44.000 177.012,43.820 177.200,43.600 177.200 C 43.380 177.200,43.200 177.470,43.200 177.800 C 43.200 178.130,43.020 178.400,42.800 178.400 C 42.580 178.400,42.400 178.713,42.400 179.095 C 42.400 179.487,43.023 178.865,43.833 177.661 C 45.210 175.617,45.547 174.687,44.500 175.823 M40.800 182.400 C 40.800 182.840,40.620 183.200,40.400 183.200 C 40.180 183.200,40.008 183.605,40.017 184.100 C 40.031 184.868,40.146 184.795,40.800 183.600 C 41.681 181.990,41.759 181.600,41.200 181.600 C 40.980 181.600,40.800 181.960,40.800 182.400 M39.492 185.442 C 39.331 185.602,39.200 186.233,39.200 186.843 C 39.200 187.453,39.020 188.064,38.800 188.200 C 38.580 188.336,38.400 189.007,38.400 189.690 C 38.400 191.391,38.701 190.949,39.418 188.196 C 40.021 185.881,40.047 184.886,39.492 185.442 M73.105 188.683 C 73.602 188.779,74.322 188.775,74.705 188.675 C 75.087 188.575,74.680 188.496,73.800 188.501 C 72.920 188.505,72.607 188.587,73.105 188.683 M78.305 188.683 C 78.802 188.779,79.522 188.775,79.905 188.675 C 80.287 188.575,79.880 188.496,79.000 188.501 C 78.120 188.505,77.807 188.587,78.305 188.683 M37.843 191.833 C 37.426 192.919,37.567 205.133,38.000 205.400 C 38.220 205.536,38.400 206.346,38.400 207.200 C 38.400 208.054,38.580 208.864,38.800 209.000 C 39.020 209.136,39.200 209.676,39.200 210.200 C 39.200 210.724,39.380 211.264,39.600 211.400 C 39.820 211.536,40.000 212.087,40.000 212.624 C 40.000 213.161,40.180 213.600,40.400 213.600 C 40.940 213.600,40.915 213.399,40.057 210.827 C 38.425 205.940,38.199 204.299,38.250 197.700 C 38.300 191.098,38.273 190.711,37.843 191.833 M148.153 196.600 C 148.153 199.240,148.218 200.268,148.297 198.884 C 148.375 197.501,148.374 195.341,148.295 194.084 C 148.216 192.828,148.152 193.960,148.153 196.600 M66.085 193.613 C 65.818 194.040,65.601 194.617,65.602 194.895 C 65.604 195.173,65.877 194.878,66.210 194.240 C 66.903 192.911,66.811 192.450,66.085 193.613 M100.705 196.283 C 101.202 196.379,101.922 196.375,102.305 196.275 C 102.687 196.175,102.280 196.096,101.400 196.101 C 100.520 196.105,100.207 196.187,100.705 196.283 M64.114 200.200 C 64.117 201.300,64.195 201.703,64.287 201.095 C 64.379 200.486,64.377 199.586,64.282 199.095 C 64.187 198.603,64.111 199.100,64.114 200.200 M148.093 202.800 C 148.093 203.570,148.175 203.885,148.276 203.500 C 148.376 203.115,148.376 202.485,148.276 202.100 C 148.175 201.715,148.093 202.030,148.093 202.800 M87.600 207.542 C 88.150 207.693,92.020 207.711,96.200 207.584 L 103.800 207.351 95.200 207.310 C 90.470 207.287,87.050 207.392,87.600 207.542 M70.143 211.000 C 70.473 211.330,70.970 211.600,71.248 211.600 C 71.531 211.600,71.412 211.342,70.976 211.013 C 69.958 210.242,69.376 210.233,70.143 211.000 M76.105 213.087 C 76.714 213.179,77.614 213.177,78.105 213.082 C 78.597 212.987,78.100 212.911,77.000 212.914 C 75.900 212.917,75.497 212.995,76.105 213.087 M41.600 216.308 C 41.600 216.799,41.780 217.200,42.000 217.200 C 42.220 217.200,42.400 217.470,42.400 217.800 C 42.400 218.130,42.580 218.400,42.800 218.400 C 43.020 218.400,43.200 218.760,43.200 219.200 C 43.200 219.640,43.380 220.000,43.600 220.000 C 43.820 220.000,44.000 220.270,44.000 220.600 C 44.000 220.930,44.180 221.200,44.400 221.200 C 44.620 221.200,44.800 221.430,44.800 221.712 C 44.800 221.993,45.160 222.483,45.600 222.800 C 46.040 223.117,46.400 223.578,46.400 223.825 C 46.400 224.071,47.210 225.130,48.200 226.178 C 49.190 227.226,50.000 227.929,50.000 227.740 C 50.000 227.551,49.280 226.631,48.400 225.697 C 47.520 224.763,46.800 223.875,46.800 223.725 C 46.800 223.575,46.462 223.080,46.050 222.626 C 45.637 222.172,44.467 220.364,43.450 218.608 C 42.224 216.494,41.600 215.718,41.600 216.308 M51.970 229.712 C 52.503 230.310,53.101 230.800,53.298 230.800 C 53.686 230.800,53.072 230.150,51.798 229.212 C 51.213 228.781,51.258 228.914,51.970 229.712 M56.943 233.400 C 57.273 233.730,57.871 233.999,58.271 233.998 C 58.792 233.996,58.673 233.824,57.854 233.398 C 56.407 232.643,56.186 232.643,56.943 233.400 M61.689 236.542 C 62.410 237.280,63.077 237.818,63.171 237.738 C 63.402 237.540,61.137 235.200,60.714 235.200 C 60.529 235.200,60.967 235.804,61.689 236.542 M63.670 242.380 C 63.632 244.679,63.741 246.389,63.913 246.180 C 64.085 245.971,64.117 244.090,63.983 242.000 L 63.740 238.200 63.670 242.380 M64.246 247.525 C 64.135 247.704,64.194 248.739,64.375 249.825 L 64.706 251.800 64.753 249.500 C 64.798 247.290,64.679 246.825,64.246 247.525 M119.599 255.700 C 119.600 255.865,122.165 255.968,125.300 255.928 C 131.128 255.854,130.448 255.695,123.499 255.506 C 121.354 255.448,119.599 255.535,119.599 255.700 M96.800 259.200 C 96.800 260.520,96.942 261.600,97.115 261.600 C 97.287 261.600,97.459 260.520,97.496 259.200 C 97.532 257.880,97.391 256.800,97.181 256.800 C 96.971 256.800,96.800 257.880,96.800 259.200 M69.573 263.562 C 70.028 264.201,70.400 264.876,70.400 265.062 C 70.401 265.479,72.197 267.600,72.549 267.600 C 72.927 267.600,69.457 262.418,69.073 262.408 C 68.893 262.404,69.118 262.923,69.573 263.562 M120.100 267.891 C 120.925 267.978,122.275 267.978,123.100 267.891 C 123.925 267.805,123.250 267.734,121.600 267.734 C 119.950 267.734,119.275 267.805,120.100 267.891 M74.400 269.889 C 74.400 270.334,75.711 271.600,76.171 271.600 C 76.340 271.600,76.983 272.140,77.600 272.800 C 78.217 273.460,78.964 273.994,79.260 273.987 C 79.621 273.979,79.552 273.787,79.053 273.409 C 78.642 273.098,77.739 272.339,77.046 271.722 C 74.977 269.881,74.400 269.481,74.400 269.889 M107.900 271.489 C 108.615 271.578,109.785 271.578,110.500 271.489 C 111.215 271.401,110.630 271.328,109.200 271.328 C 107.770 271.328,107.185 271.401,107.900 271.489 M80.886 275.400 C 82.479 276.483,82.800 276.591,82.800 276.046 C 82.800 275.696,80.394 274.400,79.747 274.400 C 79.564 274.400,80.077 274.850,80.886 275.400 M83.200 276.622 C 83.200 276.962,87.622 278.911,87.858 278.675 C 87.972 278.561,87.375 278.168,86.532 277.801 C 85.690 277.433,84.687 276.968,84.305 276.766 C 83.509 276.346,83.200 276.306,83.200 276.622 M88.800 279.200 C 89.588 279.709,90.515 279.709,90.200 279.200 C 90.064 278.980,89.558 278.803,89.076 278.806 C 88.364 278.811,88.312 278.885,88.800 279.200 M91.300 279.876 C 91.685 279.976,92.315 279.976,92.700 279.876 C 93.085 279.775,92.770 279.693,92.000 279.693 C 91.230 279.693,90.915 279.775,91.300 279.876 M95.500 280.693 C 96.435 280.777,97.965 280.777,98.900 280.693 C 99.835 280.609,99.070 280.540,97.200 280.540 C 95.330 280.540,94.565 280.609,95.500 280.693 M115.700 280.676 C 116.085 280.776,116.715 280.776,117.100 280.676 C 117.485 280.575,117.170 280.493,116.400 280.493 C 115.630 280.493,115.315 280.575,115.700 280.676 M159.694 297.900 L 159.600 310.800 158.100 310.846 L 156.600 310.892 158.200 311.204 C 159.080 311.375,159.847 311.472,159.906 311.419 C 159.964 311.366,159.961 305.400,159.900 298.161 L 159.789 285.000 159.694 297.900 M122.828 286.500 C 122.813 287.105,122.980 287.600,123.200 287.600 C 123.669 287.600,123.669 287.293,123.200 286.200 C 122.895 285.491,122.853 285.525,122.828 286.500 M139.300 305.876 C 139.685 305.976,140.000 306.225,140.000 306.429 C 140.000 306.633,140.304 306.800,140.676 306.800 C 141.266 306.800,141.254 306.725,140.576 306.213 C 140.149 305.890,139.530 305.641,139.200 305.659 C 138.780 305.683,138.810 305.748,139.300 305.876 M253.385 334.900 C 255.862 336.523,257.748 343.520,256.000 344.600 C 255.780 344.736,255.600 345.108,255.600 345.427 C 255.600 346.283,253.704 348.260,252.195 348.975 C 250.202 349.921,151.955 349.926,149.693 348.981 C 144.026 346.613,143.364 337.720,148.617 334.524 C 149.211 334.162,161.752 334.041,200.706 334.024 L 252.011 334.000 253.385 334.900 M241.400 359.201 C 244.032 359.207,244.800 359.942,244.800 362.456 C 244.800 363.059,244.980 363.664,245.200 363.800 C 245.420 363.936,245.600 364.836,245.600 365.800 C 245.600 366.764,245.780 367.664,246.000 367.800 C 246.220 367.936,246.400 368.656,246.400 369.400 C 246.400 370.144,246.580 370.864,246.800 371.000 C 247.020 371.136,247.200 371.678,247.200 372.205 C 247.200 372.731,247.361 373.576,247.558 374.081 C 247.755 374.587,248.136 375.810,248.404 376.800 C 248.672 377.790,249.030 378.960,249.200 379.400 C 249.370 379.840,249.739 381.010,250.020 382.000 C 250.814 384.792,253.978 394.483,254.461 395.600 C 254.699 396.150,255.052 396.913,255.247 397.295 C 255.441 397.677,255.600 398.228,255.600 398.519 C 255.600 398.811,255.960 399.795,256.400 400.706 C 256.840 401.616,257.200 402.640,257.200 402.981 C 257.200 403.321,257.380 403.600,257.600 403.600 C 257.820 403.600,258.000 403.872,258.000 404.205 C 258.000 404.538,258.159 405.123,258.354 405.505 C 260.028 408.788,261.200 411.404,261.200 411.856 C 261.200 412.155,261.380 412.400,261.600 412.400 C 261.820 412.400,262.000 412.760,262.000 413.200 C 262.000 413.640,262.136 414.000,262.302 414.000 C 262.469 414.000,262.859 414.585,263.170 415.300 C 263.481 416.015,264.020 417.042,264.368 417.582 C 266.746 421.279,266.080 422.767,258.638 430.400 C 255.742 433.370,252.389 436.955,251.186 438.366 C 249.984 439.777,248.819 441.127,248.598 441.366 C 248.242 441.751,245.647 444.891,244.000 446.931 C 243.670 447.339,242.815 448.322,242.100 449.115 C 241.385 449.908,240.800 450.725,240.800 450.931 C 240.800 451.137,240.469 451.597,240.064 451.953 C 239.167 452.741,229.200 467.825,229.200 468.395 C 229.200 468.618,229.062 468.800,228.894 468.800 C 228.726 468.800,228.282 469.475,227.906 470.300 C 227.180 471.896,225.946 474.068,225.577 474.400 C 225.293 474.655,218.400 488.621,218.400 488.941 C 218.400 489.072,217.860 490.359,217.200 491.800 C 216.540 493.241,216.000 494.507,216.000 494.614 C 216.000 494.721,215.661 495.572,215.247 496.504 C 214.833 497.437,214.275 498.830,214.007 499.600 C 213.406 501.326,212.818 502.781,212.353 503.695 C 212.159 504.077,212.000 504.664,212.000 505.000 C 212.000 505.336,211.820 505.968,211.600 506.405 C 211.380 506.842,211.020 507.558,210.800 507.995 C 210.580 508.432,210.400 509.141,210.400 509.571 C 210.400 510.001,210.220 510.464,210.000 510.600 C 209.780 510.736,209.600 511.289,209.600 511.829 C 209.600 512.369,209.392 513.213,209.138 513.705 C 208.884 514.197,208.552 514.870,208.401 515.200 C 207.621 516.904,204.556 517.104,204.224 515.473 C 203.744 513.112,203.563 428.417,204.036 427.532 C 204.632 426.418,205.001 426.053,206.800 424.793 C 208.844 423.362,210.800 421.318,210.800 420.613 C 210.800 420.276,210.943 420.000,211.117 420.000 C 211.292 420.000,211.677 418.909,211.973 417.574 C 213.233 411.894,209.034 405.681,203.200 404.594 C 200.629 404.115,196.400 404.519,196.400 405.244 C 196.400 405.440,196.040 405.600,195.600 405.600 C 195.160 405.600,194.800 405.741,194.800 405.914 C 194.800 406.086,194.263 406.545,193.606 406.933 C 191.304 408.293,189.200 412.388,189.200 415.510 C 189.200 417.053,189.427 417.880,190.542 420.400 C 191.115 421.694,193.874 424.449,195.354 425.204 C 197.966 426.537,197.786 423.311,197.939 471.615 C 198.091 519.415,198.205 516.800,195.968 516.800 C 194.919 516.800,192.800 514.713,192.800 513.680 C 192.800 513.222,192.620 512.736,192.400 512.600 C 192.180 512.464,192.000 511.924,192.000 511.400 C 192.000 510.876,191.820 510.336,191.600 510.200 C 191.380 510.064,191.200 509.511,191.200 508.971 C 191.200 508.431,191.020 507.632,190.800 507.195 C 190.580 506.758,190.220 506.042,190.000 505.605 C 189.780 505.168,189.600 504.536,189.600 504.200 C 189.600 503.864,189.441 503.277,189.247 502.895 C 188.782 501.981,188.194 500.526,187.593 498.800 C 187.325 498.030,186.767 496.637,186.353 495.704 C 185.939 494.772,185.600 493.915,185.600 493.800 C 185.600 493.685,185.222 492.738,184.760 491.696 C 184.298 490.653,183.773 489.440,183.593 489.000 C 182.959 487.451,175.454 472.198,175.228 472.000 C 175.103 471.890,174.775 471.395,174.500 470.900 C 174.225 470.405,173.775 469.595,173.500 469.100 C 173.225 468.605,172.910 468.110,172.800 468.000 C 172.404 467.604,171.146 465.385,170.929 464.700 C 170.807 464.315,170.548 464.000,170.353 464.000 C 170.159 464.000,170.000 463.758,170.000 463.462 C 170.000 463.166,169.640 462.598,169.200 462.200 C 168.760 461.802,168.400 461.338,168.400 461.170 C 168.400 460.824,164.100 454.477,163.329 453.685 C 163.053 453.402,162.513 452.637,162.128 451.985 C 161.743 451.333,161.286 450.800,161.114 450.800 C 160.941 450.800,160.800 450.607,160.800 450.371 C 160.800 450.136,160.575 449.714,160.300 449.435 C 160.025 449.155,159.350 448.330,158.800 447.601 C 158.250 446.872,157.080 445.468,156.200 444.481 C 155.320 443.494,154.340 442.307,154.023 441.844 C 153.706 441.380,153.346 440.910,153.223 440.800 C 153.100 440.690,151.383 438.800,149.407 436.600 C 147.432 434.400,144.102 430.836,142.008 428.679 C 136.043 422.538,135.624 421.530,137.546 417.941 C 138.177 416.763,139.122 414.990,139.646 414.000 C 140.171 413.010,140.735 412.140,140.900 412.067 C 141.065 411.993,141.200 411.697,141.200 411.407 C 141.200 411.118,141.740 409.855,142.400 408.600 C 143.060 407.345,143.600 406.067,143.600 405.759 C 143.600 405.452,143.780 405.200,144.000 405.200 C 144.220 405.200,144.400 404.928,144.400 404.596 C 144.400 404.263,144.743 403.228,145.163 402.296 C 145.582 401.363,146.588 398.800,147.397 396.600 C 148.207 394.400,149.214 391.721,149.635 390.647 C 150.056 389.572,150.400 388.368,150.400 387.970 C 150.400 387.573,150.580 387.136,150.800 387.000 C 151.020 386.864,151.200 386.324,151.200 385.800 C 151.200 385.276,151.380 384.736,151.600 384.600 C 151.820 384.464,152.000 384.001,152.000 383.571 C 152.000 383.141,152.158 382.477,152.351 382.095 C 152.691 381.422,152.942 380.609,153.985 376.800 C 154.256 375.810,154.640 374.687,154.839 374.305 C 155.038 373.923,155.200 373.079,155.200 372.429 C 155.200 371.779,155.380 371.136,155.600 371.000 C 155.820 370.864,156.000 370.144,156.000 369.400 C 156.000 368.656,156.180 367.936,156.400 367.800 C 156.620 367.664,156.800 366.854,156.800 366.000 C 156.800 365.146,156.980 364.336,157.200 364.200 C 157.420 364.064,157.600 363.369,157.600 362.656 C 157.600 360.446,158.409 359.253,160.000 359.119 C 160.770 359.053,178.860 359.044,200.200 359.098 C 221.540 359.152,240.080 359.198,241.400 359.201 " stroke="none" fill="#fbfbfb" fill-rule="evenodd"></path><path id="path3" d="M148.765 335.272 C 144.487 337.659,144.897 345.939,149.405 348.200 C 150.971 348.986,151.887 349.002,200.600 349.086 L 250.200 349.172 251.976 348.286 C 256.808 345.875,257.027 337.411,252.320 334.962 C 250.313 333.918,150.656 334.216,148.765 335.272 M158.737 360.500 C 158.467 360.995,158.109 362.210,157.941 363.200 C 157.774 364.190,157.438 365.900,157.196 367.000 C 156.954 368.100,156.656 369.587,156.534 370.304 C 156.412 371.021,156.151 371.706,155.956 371.827 C 155.760 371.948,155.600 372.478,155.600 373.005 C 155.600 373.531,155.439 374.376,155.242 374.881 C 155.045 375.387,154.660 376.610,154.388 377.600 C 153.461 380.966,153.205 381.798,151.560 386.800 C 149.815 392.105,146.612 400.687,145.230 403.756 C 144.774 404.770,144.023 406.455,143.562 407.500 C 142.202 410.585,140.654 413.785,140.418 414.000 C 140.297 414.110,139.935 414.740,139.614 415.400 C 139.292 416.060,138.723 417.056,138.349 417.614 C 136.278 420.700,137.005 422.792,141.911 427.858 C 149.731 435.931,154.143 440.833,157.875 445.594 C 158.137 445.927,159.145 447.190,160.116 448.400 C 163.162 452.197,171.200 463.673,171.200 464.225 C 171.200 464.363,171.539 464.954,171.953 465.538 C 172.367 466.122,173.070 467.250,173.516 468.045 C 173.961 468.840,174.567 469.920,174.862 470.445 C 175.158 470.970,175.512 471.490,175.650 471.600 C 175.977 471.862,183.588 487.273,184.540 489.600 C 184.945 490.590,185.514 491.940,185.805 492.600 C 186.096 493.260,186.636 494.610,187.004 495.600 C 187.672 497.393,188.063 498.389,188.774 500.100 C 188.979 500.595,189.376 501.720,189.655 502.600 C 189.935 503.480,190.307 504.371,190.482 504.580 C 190.657 504.789,190.800 505.363,190.800 505.856 C 190.800 506.349,190.980 506.864,191.200 507.000 C 191.420 507.136,191.600 507.599,191.600 508.029 C 191.600 508.459,191.760 509.123,191.956 509.505 C 192.153 509.887,192.648 511.262,193.056 512.561 C 193.933 515.343,195.527 516.890,196.601 515.999 C 197.242 515.467,197.333 490.924,196.881 440.292 L 196.760 426.785 195.080 425.745 C 181.340 417.242,192.184 398.212,206.725 405.310 C 212.020 407.894,214.216 415.088,211.396 420.609 C 210.273 422.806,209.708 423.374,205.833 426.200 L 204.736 427.000 204.781 471.384 C 204.815 505.509,204.937 515.837,205.307 516.066 C 206.243 516.645,208.064 515.083,208.649 513.200 C 210.223 508.125,210.872 506.127,211.180 505.400 C 211.367 504.960,211.736 503.970,212.000 503.200 C 212.451 501.887,212.651 501.361,213.563 499.100 C 213.762 498.605,214.227 497.390,214.596 496.400 C 214.964 495.410,215.509 494.060,215.806 493.400 C 216.104 492.740,217.279 490.130,218.419 487.600 C 220.737 482.451,224.593 474.834,226.416 471.800 C 227.077 470.700,227.735 469.530,227.878 469.200 C 228.021 468.870,228.827 467.575,229.669 466.322 C 230.511 465.069,231.200 463.930,231.200 463.790 C 231.200 463.327,239.790 450.988,240.800 450.000 C 240.913 449.890,241.496 449.141,242.096 448.335 C 242.697 447.529,243.423 446.629,243.710 446.335 C 243.998 446.041,244.516 445.390,244.863 444.888 C 245.469 444.009,247.823 441.256,251.594 437.017 C 252.580 435.908,255.313 433.020,257.666 430.600 C 265.035 423.023,266.047 421.074,264.130 418.150 C 262.187 415.184,259.217 409.054,256.306 402.000 C 253.711 395.714,249.977 384.720,247.950 377.400 C 247.707 376.520,247.369 375.350,247.200 374.800 C 246.833 373.607,246.138 370.974,245.641 368.900 C 244.677 364.881,244.400 363.529,244.400 362.856 C 244.400 362.453,244.117 361.555,243.771 360.861 L 243.141 359.600 201.185 359.600 L 159.228 359.600 158.737 360.500 " stroke="none" fill="#1e3142" fill-rule="evenodd"></path></g></svg>
